<svg width="174" height="184" viewBox="0 0 174 184" fill="none" xmlns="http://www.w3.org/2000/svg">
<path d="M50 57L35 63V15H15V88L87 58L159 88V15H139.5V63L124 56.5V0H174V111.5L87 75.5L0 112V0H50V57Z" fill="#DB9A58"/>
<path d="M50 136L35 142.5V168.5H15V133.5L87 103.5L159.5 133.5V168.5H139.5V142.5L124 136V183.5H174V122L87 86L0 122.5V183.5H50V136Z" fill="#DB9A58"/>
<path d="M89.8571 135H104V149.143H89.8571V135Z" fill="#DB9A58"/>
<path d="M85.1429 135H71V149.143H85.1429V135Z" fill="#DB9A58"/>
<path d="M85.1429 153.857H71V168H85.1429V153.857Z" fill="#DB9A58"/>
<path d="M89.8571 168H104V153.857H89.8571V168Z" fill="#DB9A58"/>
</svg>
