<svg xmlns="http://www.w3.org/2000/svg" width="60" height="60" fill="none"><path fill="#F2CDA7" d="M30 0q6.215 0 11.679 2.357t9.535 6.429 6.429 9.535T60 30t-2.357 11.679-6.429 9.535q-4.072 4.072-9.535 6.429Q36.214 60 30 60t-11.679-2.357q-5.463-2.357-9.535-6.429T2.357 41.68Q0 36.214 0 30t2.357-11.679q2.357-5.463 6.429-9.535t9.535-6.429Q23.786 0 30 0M13.143 37.786l9-6.429-9-6.428zm33.714 2.857-11-7.857L30 37l-5.929-4.214-10.928 7.857V45h33.714zm0-15.714-9 6.428 9 6.429zm0-9.929H13.143v4.357l16.857 12 16.857-12z"/></svg>