<svg width="213" height="79" viewBox="0 0 213 79" fill="none" xmlns="http://www.w3.org/2000/svg">
<path d="M21.5259 24.5395L15.0681 27.1226V6.45777H6.45777V37.8856L37.455 24.97L68.4523 37.8856V6.45777H60.0572V27.1226L53.3842 24.3243V0H74.9101V48.0027L37.455 32.5041L0 48.218V0H21.5259V24.5395Z" fill="#4D2708"/>
<path d="M21.5259 58.5504L15.0681 61.3488V72.5422H6.45777V57.4741L37.455 44.5586L68.6676 57.4741V72.5422H60.0572V61.3488L53.3842 58.5504V79H74.9101V52.5232L37.455 37.0245L0 52.7384V79H21.5259V58.5504Z" fill="#4D2708"/>
<path d="M38.6851 58.1199H44.7738V64.2086H38.6851V58.1199Z" fill="#4D2708"/>
<path d="M36.6555 58.1199H30.5668V64.2086H36.6555V58.1199Z" fill="#4D2708"/>
<path d="M36.6555 66.2382H30.5668V72.327H36.6555V66.2382Z" fill="#4D2708"/>
<path d="M38.6851 72.327H44.7738V66.2382H38.6851V72.327Z" fill="#4D2708"/>
<line x1="80.9374" y1="12.8079" x2="80.9374" y2="66.1921" stroke="#4D2708" stroke-width="0.861035"/>
<path d="M93.1263 24.6388L91.8335 24.7964V38.0924L93.1263 38.2501V38.4183H87.3139V38.2501L88.6067 38.0924V24.7964L87.3139 24.6388V24.4706H93.1263V24.6388ZM110.364 26.7304L109.134 26.8775V38.0924L110.364 38.2501V38.4183H104.678V38.2501L105.907 38.0924V27.6133H105.865L101.472 38.5024H101.062L96.3216 27.6133H96.2795V36.6735C96.2795 37.0309 96.4267 37.3847 96.721 37.7351C97.0223 38.0784 97.3727 38.2501 97.7721 38.2501V38.4183H94.4297V38.2501C94.8291 38.2501 95.1759 38.0784 95.4702 37.7351C95.7645 37.3847 95.9117 37.0309 95.9117 36.6735V26.8775L94.6924 26.7304V26.5622H99.0754L102.565 34.5398H102.67L105.907 26.5622H110.364V26.7304ZM118.289 26.4046C119.123 26.4046 119.901 26.5132 120.622 26.7304C121.344 26.9476 121.968 27.2489 122.493 27.6343C123.019 28.0127 123.467 28.4576 123.839 28.9692C124.217 29.4807 124.497 30.0378 124.679 30.6404C124.869 31.236 124.963 31.8561 124.963 32.5008C124.963 33.3066 124.813 34.0739 124.511 34.8026C124.217 35.5243 123.793 36.1655 123.239 36.7261C122.693 37.2866 121.989 37.7351 121.127 38.0714C120.272 38.4008 119.326 38.5654 118.289 38.5654C117.231 38.5654 116.267 38.4008 115.398 38.0714C114.53 37.7351 113.815 37.2866 113.254 36.7261C112.701 36.1655 112.27 35.5243 111.961 34.8026C111.66 34.0739 111.51 33.3066 111.51 32.5008C111.51 31.6949 111.66 30.9277 111.961 30.1989C112.27 29.4632 112.701 28.815 113.254 28.2544C113.815 27.6869 114.53 27.2384 115.398 26.9091C116.267 26.5727 117.231 26.4046 118.289 26.4046ZM118.289 38.2501C118.758 38.2501 119.168 38.1695 119.519 38.0084C119.869 37.8472 120.191 37.5634 120.486 37.157C120.78 36.7506 121.004 36.1585 121.158 35.3807C121.312 34.6029 121.39 33.6429 121.39 32.5008C121.39 31.5758 121.337 30.77 121.232 30.0833C121.127 29.3966 120.983 28.843 120.801 28.4226C120.626 27.9952 120.402 27.6553 120.128 27.4031C119.855 27.1438 119.571 26.9686 119.277 26.8775C118.99 26.7794 118.66 26.7304 118.289 26.7304C117.897 26.7304 117.546 26.7794 117.238 26.8775C116.937 26.9686 116.646 27.1438 116.365 27.4031C116.085 27.6553 115.85 27.9952 115.661 28.4226C115.479 28.843 115.332 29.3966 115.22 30.0833C115.115 30.77 115.062 31.5758 115.062 32.5008C115.062 33.4187 115.115 34.221 115.22 34.9077C115.332 35.5944 115.479 36.148 115.661 36.5684C115.85 36.9888 116.085 37.3287 116.365 37.5879C116.646 37.8402 116.937 38.0154 117.238 38.1135C117.546 38.2046 117.897 38.2501 118.289 38.2501ZM133.025 32.4797C134.447 32.4797 135.593 32.7425 136.462 33.268C137.338 33.7936 137.776 34.4908 137.776 35.3597C137.776 36.3126 137.257 37.0624 136.22 37.609C135.19 38.1485 133.806 38.4183 132.068 38.4183H126.351V38.2501L127.57 38.0924V26.8775L126.351 26.7304V26.5622H131.858C133.617 26.5622 134.938 26.832 135.821 27.3715C136.711 27.9041 137.156 28.6363 137.156 29.5683C137.156 30.4302 136.777 31.1239 136.02 31.6494C135.264 32.1749 134.265 32.4377 133.025 32.4377V32.4797ZM131.858 26.8775H130.807V32.28H132.31C133.172 32.28 133.603 31.3761 133.603 29.5683C133.603 27.7745 133.021 26.8775 131.858 26.8775ZM132.068 38.0924C132.769 38.0924 133.302 37.8997 133.666 37.5144C134.037 37.122 134.223 36.4037 134.223 35.3597C134.223 34.8061 134.178 34.3436 134.086 33.9723C133.995 33.6009 133.859 33.3206 133.677 33.1314C133.494 32.9352 133.295 32.7986 133.077 32.7215C132.867 32.6444 132.611 32.6059 132.31 32.6059H130.807V38.0924H132.068ZM144.87 26.7304L143.651 26.8775V38.0924L144.87 38.2501V38.4183H139.195V38.2501L140.414 38.0924V26.8775L139.195 26.7304V26.5622H144.87V26.7304ZM156.579 34.9497H156.779L156.653 38.4183H146.426V38.2501L147.645 38.0924V26.8775L146.426 26.7304V26.5622H152.102V26.7304L150.883 26.8775V38.0924H153.163C154.102 38.0924 154.87 37.8297 155.465 37.3041C156.061 36.7716 156.425 36.0394 156.558 35.1074L156.579 34.9497ZM163.6 26.7304L162.381 26.8775V38.0924L163.6 38.2501V38.4183H157.925V38.2501L159.144 38.0924V26.8775L157.925 26.7304V26.5622H163.6V26.7304ZM172.902 23.0517L170.001 25.7844H169.739L170.601 22.8519H172.902V23.0517ZM176.739 38.0504L178.116 38.2501V38.4183H172.146V38.2501L173.312 38.0504L171.935 34.6765H166.901L166.491 35.7065C166.358 36.0499 166.291 36.3652 166.291 36.6525C166.291 37.0939 166.456 37.4723 166.785 37.7876C167.122 38.0959 167.574 38.2501 168.141 38.2501V38.4183H163.863V38.2501L165.177 38.0504L169.739 26.5622H172.062L176.739 38.0504ZM167.027 34.3506H171.809L169.455 28.6013H169.287L167.027 34.3506ZM190.823 36.2846H191.012V36.5264C191.012 37.143 190.785 37.637 190.329 38.0084C189.881 38.3797 189.219 38.5654 188.343 38.5654C187.558 38.5654 186.927 38.3517 186.451 37.9243C185.974 37.4968 185.736 36.9363 185.736 36.2426V34.5398C185.736 34.0704 185.585 33.6885 185.284 33.3942C184.983 33.0999 184.569 32.9527 184.044 32.9527H182.751V38.0924L183.97 38.2501V38.4183H178.294V38.2501L179.514 38.0924V26.8775L178.294 26.7304V26.5622H184.149C185.901 26.5622 187.186 26.86 188.006 27.4556C188.833 28.0442 189.247 28.808 189.247 29.747C189.247 30.6299 188.907 31.3516 188.227 31.9122C187.547 32.4727 186.496 32.753 185.074 32.753V32.8266C186.37 32.8336 187.337 33.0859 187.975 33.5834C188.619 34.0809 188.942 34.7606 188.942 35.6224V36.5264C188.942 37.2691 189.208 37.6405 189.741 37.6405C190.056 37.6405 190.301 37.5389 190.476 37.3357C190.658 37.1255 190.767 36.8557 190.802 36.5264L190.823 36.2846ZM182.751 32.6269H184.149C184.394 32.6269 184.601 32.5883 184.769 32.5113C184.944 32.4342 185.105 32.2976 185.252 32.1014C185.4 31.8981 185.508 31.6003 185.578 31.2079C185.655 30.8155 185.694 30.3285 185.694 29.747C185.694 29.1584 185.655 28.6679 185.578 28.2755C185.501 27.8831 185.386 27.5888 185.231 27.3926C185.084 27.1964 184.927 27.0632 184.758 26.9932C184.59 26.9161 184.387 26.8775 184.149 26.8775H182.751V32.6269ZM197.508 26.7304L196.289 26.8775V38.0924L197.508 38.2501V38.4183H191.832V38.2501L193.051 38.0924V26.8775L191.832 26.7304V26.5622H197.508V26.7304ZM210.646 38.0504L212.023 38.2501V38.4183H206.053V38.2501L207.22 38.0504L205.843 34.6765H200.808L200.398 35.7065C200.265 36.0499 200.199 36.3652 200.199 36.6525C200.199 37.0939 200.363 37.4723 200.693 37.7876C201.029 38.0959 201.481 38.2501 202.049 38.2501V38.4183H197.771V38.2501L199.085 38.0504L203.646 26.5622H205.969L210.646 38.0504ZM200.934 34.3506H205.717L203.362 28.6013H203.194L200.934 34.3506Z" fill="#4D2708"/>
<path d="M92.5157 54.9118C92.0249 54.9118 91.5935 54.7982 91.2216 54.5708C90.8496 54.3435 90.5603 54.0232 90.3536 53.6099C90.147 53.1915 90.0437 52.6981 90.0437 52.1298C90.0437 51.7113 90.1056 51.3316 90.2296 50.9907C90.3588 50.6497 90.5344 50.3578 90.7566 50.115C90.9839 49.8722 91.25 49.6862 91.5548 49.557C91.8596 49.4227 92.1928 49.3555 92.5544 49.3555C92.7662 49.3555 92.96 49.371 93.1356 49.402C93.3165 49.433 93.474 49.4744 93.6083 49.526C93.7427 49.5725 93.8563 49.6268 93.9493 49.6888L93.8176 50.0142C93.6781 49.9316 93.4999 49.8618 93.2829 49.805C93.0711 49.743 92.836 49.712 92.5777 49.712C92.1541 49.712 91.7821 49.8153 91.4618 50.022C91.1415 50.2286 90.8935 50.5154 90.7178 50.8822C90.5422 51.2438 90.4544 51.6648 90.4544 52.1453C90.4544 52.6309 90.5396 53.0546 90.7101 53.4162C90.8806 53.7727 91.1208 54.0516 91.4308 54.2531C91.7459 54.4546 92.1153 54.5553 92.5389 54.5553C92.8127 54.5553 93.0633 54.5295 93.2906 54.4778C93.5231 54.421 93.7168 54.3539 93.8718 54.2764L93.9803 54.6096C93.8357 54.6871 93.6342 54.7568 93.3759 54.8188C93.1227 54.8808 92.836 54.9118 92.5157 54.9118ZM96.4412 54.8886C96.0951 54.8886 95.7851 54.8033 95.5113 54.6328C95.2426 54.4572 95.0334 54.2144 94.8836 53.9044C94.7338 53.5893 94.6589 53.225 94.6589 52.8117C94.6589 52.3984 94.7338 52.0368 94.8836 51.7268C95.0334 51.4169 95.2426 51.1741 95.5113 50.9984C95.7851 50.8228 96.0976 50.7349 96.449 50.7349C96.8003 50.7349 97.1102 50.8228 97.3789 50.9984C97.6475 51.1741 97.8567 51.4169 98.0066 51.7268C98.1616 52.0368 98.239 52.3984 98.239 52.8117C98.239 53.225 98.1616 53.5893 98.0066 53.9044C97.8567 54.2144 97.6475 54.4572 97.3789 54.6328C97.1102 54.8033 96.7977 54.8886 96.4412 54.8886ZM96.4412 54.5476C96.7305 54.5476 96.9785 54.4778 97.1851 54.3384C97.397 54.1937 97.5597 53.9922 97.6733 53.7339C97.7922 53.4704 97.8516 53.163 97.8516 52.8117C97.8516 52.4604 97.7922 52.1556 97.6733 51.8973C97.5597 51.6338 97.397 51.4324 97.1851 51.2929C96.9785 51.1482 96.7305 51.0759 96.4412 51.0759C96.1622 51.0759 95.9168 51.1482 95.705 51.2929C95.4932 51.4324 95.3305 51.6338 95.2168 51.8973C95.1032 52.1556 95.0463 52.4604 95.0463 52.8117C95.0463 53.1579 95.1032 53.4627 95.2168 53.7262C95.3305 53.9896 95.4932 54.1937 95.705 54.3384C95.9168 54.4778 96.1622 54.5476 96.4412 54.5476ZM99.3714 54.8188V50.9829C99.5264 50.9312 99.7253 50.8796 99.9681 50.8279C100.216 50.7763 100.508 50.7504 100.844 50.7504C101.242 50.7504 101.552 50.8253 101.774 50.9752C102.001 51.125 102.159 51.3368 102.246 51.6106C102.339 51.8844 102.386 52.2125 102.386 52.5948V54.8188H102.014V52.742C102.014 52.3545 101.98 52.0394 101.913 51.7966C101.846 51.5538 101.722 51.3755 101.541 51.2619C101.366 51.1482 101.118 51.0914 100.797 51.0914C100.544 51.0914 100.319 51.1095 100.123 51.1456C99.9319 51.1818 99.8054 51.2128 99.7434 51.2386V54.8188H99.3714ZM103.708 54.8188V50.3552C103.708 49.8283 103.824 49.4382 104.056 49.1851C104.289 48.9319 104.643 48.8053 105.118 48.8053C105.283 48.8053 105.433 48.8208 105.568 48.8518C105.702 48.8828 105.8 48.9138 105.862 48.9448L105.785 49.2703C105.707 49.2341 105.609 49.2031 105.49 49.1773C105.371 49.1515 105.25 49.1386 105.126 49.1386C104.764 49.1386 104.498 49.2341 104.328 49.4253C104.162 49.6113 104.08 49.9264 104.08 50.3707V50.8279H105.723V51.1611H104.08V54.8188H103.708ZM106.559 54.8188V50.8279H106.924V54.8188H106.559ZM106.738 49.7585C106.655 49.7585 106.583 49.7301 106.521 49.6733C106.464 49.6164 106.435 49.5389 106.435 49.4408C106.435 49.3478 106.464 49.2729 106.521 49.2161C106.583 49.1592 106.655 49.1308 106.738 49.1308C106.826 49.1308 106.898 49.1592 106.955 49.2161C107.011 49.2729 107.04 49.3478 107.04 49.4408C107.04 49.5389 107.011 49.6164 106.955 49.6733C106.898 49.7301 106.826 49.7585 106.738 49.7585ZM109.533 54.8808C109.213 54.8808 108.937 54.8369 108.704 54.7491C108.477 54.6612 108.304 54.5269 108.185 54.3461C108.066 54.1601 108.007 53.9276 108.007 53.6487C108.007 53.3749 108.071 53.1501 108.201 52.9745C108.33 52.7937 108.516 52.6619 108.759 52.5793C109.006 52.4914 109.304 52.4475 109.65 52.4475C109.799 52.4475 109.96 52.463 110.13 52.494C110.301 52.5199 110.432 52.5483 110.525 52.5793V52.3003C110.525 52.0368 110.492 51.8147 110.425 51.6338C110.363 51.4479 110.254 51.3084 110.099 51.2154C109.944 51.1172 109.725 51.0681 109.44 51.0681C109.239 51.0681 109.056 51.0862 108.89 51.1224C108.725 51.1586 108.596 51.1999 108.503 51.2464L108.449 50.9132C108.567 50.8615 108.715 50.8202 108.89 50.7892C109.066 50.753 109.265 50.7349 109.487 50.7349C109.823 50.7349 110.094 50.7943 110.301 50.9132C110.507 51.032 110.657 51.1999 110.75 51.4169C110.848 51.6287 110.897 51.8844 110.897 52.184V54.7026C110.732 54.7491 110.528 54.7904 110.285 54.8266C110.042 54.8627 109.792 54.8808 109.533 54.8808ZM109.588 54.5476C109.753 54.5476 109.916 54.5398 110.076 54.5243C110.241 54.5088 110.391 54.483 110.525 54.4468V52.897C110.427 52.8557 110.306 52.8221 110.161 52.7962C110.016 52.7704 109.849 52.7575 109.657 52.7575C109.404 52.7575 109.182 52.7885 108.991 52.8505C108.805 52.9073 108.658 53.0003 108.549 53.1295C108.446 53.2586 108.394 53.4291 108.394 53.6409C108.394 53.9612 108.492 54.1937 108.689 54.3384C108.89 54.4778 109.19 54.5476 109.588 54.5476ZM112.214 54.8188V50.9829C112.369 50.9312 112.568 50.8796 112.81 50.8279C113.058 50.7763 113.35 50.7504 113.686 50.7504C114.084 50.7504 114.394 50.8253 114.616 50.9752C114.843 51.125 115.001 51.3368 115.089 51.6106C115.182 51.8844 115.228 52.2125 115.228 52.5948V54.8188H114.856V52.742C114.856 52.3545 114.823 52.0394 114.756 51.7966C114.688 51.5538 114.564 51.3755 114.384 51.2619C114.208 51.1482 113.96 51.0914 113.64 51.0914C113.387 51.0914 113.162 51.1095 112.965 51.1456C112.774 51.1818 112.648 51.2128 112.586 51.2386V54.8188H112.214ZM117.813 56.2679C117.725 56.2679 117.638 56.2602 117.55 56.2447C117.462 56.2292 117.384 56.2085 117.317 56.1827L117.364 55.9192C117.421 55.9399 117.485 55.9554 117.557 55.9657C117.635 55.976 117.71 55.9812 117.782 55.9812C117.922 55.9812 118.025 55.9554 118.092 55.9037C118.165 55.8572 118.201 55.7875 118.201 55.6945C118.201 55.5912 118.162 55.5085 118.084 55.4465C118.007 55.3897 117.878 55.3303 117.697 55.2683C117.723 55.2063 117.751 55.1391 117.782 55.0668C117.813 54.9945 117.847 54.9247 117.883 54.8576C117.552 54.8214 117.268 54.7207 117.031 54.5553C116.798 54.3849 116.62 54.155 116.496 53.8657C116.377 53.5712 116.318 53.2302 116.318 52.8427C116.318 52.4088 116.39 52.0368 116.535 51.7268C116.684 51.4117 116.894 51.1689 117.162 50.9984C117.436 50.8279 117.756 50.7427 118.123 50.7427C118.34 50.7427 118.531 50.7608 118.697 50.7969C118.867 50.8279 119.009 50.8718 119.123 50.9287L119.022 51.2541C118.914 51.2025 118.787 51.1611 118.642 51.1301C118.498 51.0991 118.33 51.0836 118.139 51.0836C117.679 51.0836 117.325 51.236 117.077 51.5409C116.829 51.8457 116.705 52.2796 116.705 52.8427C116.705 53.1992 116.759 53.504 116.868 53.7572C116.976 54.0103 117.142 54.204 117.364 54.3384C117.586 54.4727 117.865 54.5398 118.201 54.5398C118.366 54.5398 118.534 54.5166 118.704 54.4701C118.88 54.4236 119.017 54.3719 119.115 54.3151L119.193 54.6406C119.089 54.7026 118.942 54.7568 118.751 54.8033C118.565 54.8498 118.369 54.8756 118.162 54.8808C118.146 54.917 118.131 54.9531 118.115 54.9893C118.1 55.0255 118.084 55.0616 118.069 55.0978C118.224 55.165 118.34 55.245 118.418 55.338C118.5 55.4362 118.542 55.555 118.542 55.6945C118.542 55.803 118.516 55.8986 118.464 55.9812C118.412 56.069 118.332 56.1388 118.224 56.1904C118.115 56.2421 117.979 56.2679 117.813 56.2679ZM121.301 54.8808C120.981 54.8808 120.704 54.8369 120.472 54.7491C120.245 54.6612 120.072 54.5269 119.953 54.3461C119.834 54.1601 119.775 53.9276 119.775 53.6487C119.775 53.3749 119.839 53.1501 119.968 52.9745C120.097 52.7937 120.283 52.6619 120.526 52.5793C120.774 52.4914 121.071 52.4475 121.417 52.4475C121.567 52.4475 121.727 52.463 121.898 52.494C122.068 52.5199 122.2 52.5483 122.293 52.5793V52.3003C122.293 52.0368 122.26 51.8147 122.192 51.6338C122.13 51.4479 122.022 51.3084 121.867 51.2154C121.712 51.1172 121.492 51.0681 121.208 51.0681C121.007 51.0681 120.823 51.0862 120.658 51.1224C120.493 51.1586 120.364 51.1999 120.271 51.2464L120.216 50.9132C120.335 50.8615 120.482 50.8202 120.658 50.7892C120.834 50.753 121.033 50.7349 121.255 50.7349C121.591 50.7349 121.862 50.7943 122.068 50.9132C122.275 51.032 122.425 51.1999 122.518 51.4169C122.616 51.6287 122.665 51.8844 122.665 52.184V54.7026C122.5 54.7491 122.296 54.7904 122.053 54.8266C121.81 54.8627 121.56 54.8808 121.301 54.8808ZM121.355 54.5476C121.521 54.5476 121.683 54.5398 121.844 54.5243C122.009 54.5088 122.159 54.483 122.293 54.4468V52.897C122.195 52.8557 122.074 52.8221 121.929 52.7962C121.784 52.7704 121.616 52.7575 121.425 52.7575C121.172 52.7575 120.95 52.7885 120.759 52.8505C120.573 52.9073 120.426 53.0003 120.317 53.1295C120.214 53.2586 120.162 53.4291 120.162 53.6409C120.162 53.9612 120.26 54.1937 120.457 54.3384C120.658 54.4778 120.958 54.5476 121.355 54.5476ZM125.73 56.2524V50.9752C125.849 50.9287 125.98 50.8899 126.125 50.8589C126.27 50.8279 126.425 50.8021 126.59 50.7814C126.76 50.7608 126.939 50.7504 127.125 50.7504C127.512 50.7504 127.85 50.8357 128.14 51.0062C128.429 51.1715 128.651 51.4091 128.806 51.7191C128.966 52.0239 129.046 52.3907 129.046 52.8195C129.046 53.238 128.974 53.6022 128.829 53.9121C128.685 54.2221 128.478 54.4623 128.209 54.6328C127.941 54.8033 127.623 54.8886 127.256 54.8886C127.029 54.8886 126.812 54.855 126.605 54.7878C126.399 54.7155 126.231 54.6277 126.102 54.5243V56.2524H125.73ZM127.225 54.5476C127.463 54.5476 127.67 54.5088 127.845 54.4314C128.026 54.3487 128.176 54.2325 128.295 54.0826C128.419 53.9276 128.509 53.7442 128.566 53.5324C128.628 53.3206 128.659 53.083 128.659 52.8195C128.659 52.4269 128.589 52.104 128.45 51.8508C128.315 51.5925 128.127 51.4014 127.884 51.2774C127.646 51.1534 127.37 51.0914 127.055 51.0914C126.879 51.0914 126.706 51.1043 126.536 51.1301C126.37 51.156 126.226 51.187 126.102 51.2231V54.1679C126.22 54.2712 126.381 54.3616 126.582 54.4391C126.789 54.5114 127.003 54.5476 127.225 54.5476ZM131.412 54.8808C131.091 54.8808 130.815 54.8369 130.582 54.7491C130.355 54.6612 130.182 54.5269 130.063 54.3461C129.944 54.1601 129.885 53.9276 129.885 53.6487C129.885 53.3749 129.95 53.1501 130.079 52.9745C130.208 52.7937 130.394 52.6619 130.637 52.5793C130.885 52.4914 131.182 52.4475 131.528 52.4475C131.678 52.4475 131.838 52.463 132.008 52.494C132.179 52.5199 132.311 52.5483 132.404 52.5793V52.3003C132.404 52.0368 132.37 51.8147 132.303 51.6338C132.241 51.4479 132.132 51.3084 131.977 51.2154C131.822 51.1172 131.603 51.0681 131.319 51.0681C131.117 51.0681 130.934 51.0862 130.768 51.1224C130.603 51.1586 130.474 51.1999 130.381 51.2464L130.327 50.9132C130.446 50.8615 130.593 50.8202 130.768 50.7892C130.944 50.753 131.143 50.7349 131.365 50.7349C131.701 50.7349 131.972 50.7943 132.179 50.9132C132.385 51.032 132.535 51.1999 132.628 51.4169C132.726 51.6287 132.776 51.8844 132.776 52.184V54.7026C132.61 54.7491 132.406 54.7904 132.163 54.8266C131.921 54.8627 131.67 54.8808 131.412 54.8808ZM131.466 54.5476C131.631 54.5476 131.794 54.5398 131.954 54.5243C132.119 54.5088 132.269 54.483 132.404 54.4468V52.897C132.305 52.8557 132.184 52.8221 132.039 52.7962C131.895 52.7704 131.727 52.7575 131.536 52.7575C131.282 52.7575 131.06 52.7885 130.869 52.8505C130.683 52.9073 130.536 53.0003 130.427 53.1295C130.324 53.2586 130.272 53.4291 130.272 53.6409C130.272 53.9612 130.371 54.1937 130.567 54.3384C130.768 54.4778 131.068 54.5476 131.466 54.5476ZM134.092 54.8188V51.0294C134.262 50.9467 134.454 50.8796 134.665 50.8279C134.882 50.7763 135.115 50.7504 135.363 50.7504C135.466 50.7504 135.564 50.7556 135.657 50.7659C135.75 50.7763 135.833 50.7892 135.905 50.8047C135.983 50.8202 136.047 50.8383 136.099 50.8589L136.029 51.1766C135.962 51.156 135.867 51.1379 135.743 51.1224C135.619 51.1017 135.479 51.0914 135.324 51.0914C135.154 51.0914 134.993 51.1069 134.844 51.1379C134.694 51.1689 134.567 51.2076 134.464 51.2541V54.8188H134.092ZM138.132 54.8808C137.811 54.8808 137.535 54.8369 137.303 54.7491C137.075 54.6612 136.902 54.5269 136.783 54.3461C136.665 54.1601 136.605 53.9276 136.605 53.6487C136.605 53.3749 136.67 53.1501 136.799 52.9745C136.928 52.7937 137.114 52.6619 137.357 52.5793C137.605 52.4914 137.902 52.4475 138.248 52.4475C138.398 52.4475 138.558 52.463 138.728 52.494C138.899 52.5199 139.031 52.5483 139.124 52.5793V52.3003C139.124 52.0368 139.09 51.8147 139.023 51.6338C138.961 51.4479 138.852 51.3084 138.697 51.2154C138.542 51.1172 138.323 51.0681 138.039 51.0681C137.837 51.0681 137.654 51.0862 137.489 51.1224C137.323 51.1586 137.194 51.1999 137.101 51.2464L137.047 50.9132C137.166 50.8615 137.313 50.8202 137.489 50.7892C137.664 50.753 137.863 50.7349 138.085 50.7349C138.421 50.7349 138.692 50.7943 138.899 50.9132C139.106 51.032 139.255 51.1999 139.348 51.4169C139.447 51.6287 139.496 51.8844 139.496 52.184V54.7026C139.33 54.7491 139.126 54.7904 138.883 54.8266C138.641 54.8627 138.39 54.8808 138.132 54.8808ZM138.186 54.5476C138.351 54.5476 138.514 54.5398 138.674 54.5243C138.84 54.5088 138.989 54.483 139.124 54.4468V52.897C139.026 52.8557 138.904 52.8221 138.759 52.7962C138.615 52.7704 138.447 52.7575 138.256 52.7575C138.003 52.7575 137.78 52.7885 137.589 52.8505C137.403 52.9073 137.256 53.0003 137.148 53.1295C137.044 53.2586 136.993 53.4291 136.993 53.6409C136.993 53.9612 137.091 54.1937 137.287 54.3384C137.489 54.4778 137.788 54.5476 138.186 54.5476ZM142.56 54.8188V50.9829C142.705 50.9312 142.891 50.8796 143.118 50.8279C143.351 50.7763 143.627 50.7504 143.947 50.7504C144.226 50.7504 144.456 50.7918 144.637 50.8744C144.823 50.9519 144.968 51.0656 145.071 51.2154C145.159 51.1379 145.267 51.0656 145.396 50.9984C145.526 50.9261 145.673 50.8667 145.838 50.8202C146.009 50.7737 146.192 50.7504 146.388 50.7504C146.74 50.7504 147.016 50.8124 147.218 50.9364C147.424 51.0604 147.571 51.2464 147.659 51.4944C147.747 51.7423 147.791 52.0549 147.791 52.432V54.8188H147.419V52.5793C147.419 52.2383 147.391 51.9593 147.334 51.7423C147.277 51.5202 147.171 51.3575 147.016 51.2541C146.861 51.1456 146.639 51.0914 146.35 51.0914C146.174 51.0914 146.016 51.1121 145.877 51.1534C145.737 51.1896 145.613 51.2386 145.505 51.3006C145.396 51.3626 145.301 51.4298 145.218 51.5021C145.27 51.6261 145.306 51.7656 145.327 51.9206C145.347 52.0756 145.358 52.2435 145.358 52.4243V54.8188H144.994V52.5793C144.994 52.2331 144.963 51.9516 144.901 51.7346C144.844 51.5176 144.738 51.3575 144.583 51.2541C144.428 51.1456 144.201 51.0914 143.901 51.0914C143.761 51.0914 143.624 51.0991 143.49 51.1146C143.356 51.1301 143.24 51.1508 143.141 51.1766C143.043 51.1973 142.974 51.218 142.932 51.2386V54.8188H142.56ZM150.664 54.8886C150.318 54.8886 150.008 54.8033 149.734 54.6328C149.465 54.4572 149.256 54.2144 149.106 53.9044C148.956 53.5893 148.881 53.225 148.881 52.8117C148.881 52.3984 148.956 52.0368 149.106 51.7268C149.256 51.4169 149.465 51.1741 149.734 50.9984C150.008 50.8228 150.32 50.7349 150.671 50.7349C151.023 50.7349 151.333 50.8228 151.601 50.9984C151.87 51.1741 152.079 51.4169 152.229 51.7268C152.384 52.0368 152.462 52.3984 152.462 52.8117C152.462 53.225 152.384 53.5893 152.229 53.9044C152.079 54.2144 151.87 54.4572 151.601 54.6328C151.333 54.8033 151.02 54.8886 150.664 54.8886ZM150.664 54.5476C150.953 54.5476 151.201 54.4778 151.408 54.3384C151.619 54.1937 151.782 53.9922 151.896 53.7339C152.015 53.4704 152.074 53.163 152.074 52.8117C152.074 52.4604 152.015 52.1556 151.896 51.8973C151.782 51.6338 151.619 51.4324 151.408 51.2929C151.201 51.1482 150.953 51.0759 150.664 51.0759C150.385 51.0759 150.139 51.1482 149.928 51.2929C149.716 51.4324 149.553 51.6338 149.439 51.8973C149.326 52.1556 149.269 52.4604 149.269 52.8117C149.269 53.1579 149.326 53.4627 149.439 53.7262C149.553 53.9896 149.716 54.1937 149.928 54.3384C150.139 54.4778 150.385 54.5476 150.664 54.5476ZM153.594 54.8188V51.0294C153.764 50.9467 153.956 50.8796 154.167 50.8279C154.384 50.7763 154.617 50.7504 154.865 50.7504C154.968 50.7504 155.066 50.7556 155.159 50.7659C155.252 50.7763 155.335 50.7892 155.407 50.8047C155.485 50.8202 155.549 50.8383 155.601 50.8589L155.531 51.1766C155.464 51.156 155.369 51.1379 155.245 51.1224C155.121 51.1017 154.981 51.0914 154.826 51.0914C154.656 51.0914 154.495 51.1069 154.346 51.1379C154.196 51.1689 154.069 51.2076 153.966 51.2541V54.8188H153.594ZM157.634 54.8808C157.313 54.8808 157.037 54.8369 156.805 54.7491C156.577 54.6612 156.404 54.5269 156.285 54.3461C156.166 54.1601 156.107 53.9276 156.107 53.6487C156.107 53.3749 156.172 53.1501 156.301 52.9745C156.43 52.7937 156.616 52.6619 156.859 52.5793C157.107 52.4914 157.404 52.4475 157.75 52.4475C157.9 52.4475 158.06 52.463 158.23 52.494C158.401 52.5199 158.533 52.5483 158.626 52.5793V52.3003C158.626 52.0368 158.592 51.8147 158.525 51.6338C158.463 51.4479 158.354 51.3084 158.199 51.2154C158.044 51.1172 157.825 51.0681 157.541 51.0681C157.339 51.0681 157.156 51.0862 156.991 51.1224C156.825 51.1586 156.696 51.1999 156.603 51.2464L156.549 50.9132C156.668 50.8615 156.815 50.8202 156.991 50.7892C157.166 50.753 157.365 50.7349 157.587 50.7349C157.923 50.7349 158.194 50.7943 158.401 50.9132C158.608 51.032 158.757 51.1999 158.85 51.4169C158.948 51.6287 158.998 51.8844 158.998 52.184V54.7026C158.832 54.7491 158.628 54.7904 158.385 54.8266C158.143 54.8627 157.892 54.8808 157.634 54.8808ZM157.688 54.5476C157.853 54.5476 158.016 54.5398 158.176 54.5243C158.341 54.5088 158.491 54.483 158.626 54.4468V52.897C158.527 52.8557 158.406 52.8221 158.261 52.7962C158.117 52.7704 157.949 52.7575 157.758 52.7575C157.505 52.7575 157.282 52.7885 157.091 52.8505C156.905 52.9073 156.758 53.0003 156.65 53.1295C156.546 53.2586 156.495 53.4291 156.495 53.6409C156.495 53.9612 156.593 54.1937 156.789 54.3384C156.991 54.4778 157.29 54.5476 157.688 54.5476ZM160.314 54.8188V51.0294C160.485 50.9467 160.676 50.8796 160.888 50.8279C161.104 50.7763 161.337 50.7504 161.585 50.7504C161.688 50.7504 161.786 50.7556 161.879 50.7659C161.972 50.7763 162.055 50.7892 162.127 50.8047C162.205 50.8202 162.269 50.8383 162.321 50.8589L162.251 51.1766C162.184 51.156 162.089 51.1379 161.965 51.1224C161.841 51.1017 161.701 51.0914 161.546 51.0914C161.376 51.0914 161.216 51.1069 161.066 51.1379C160.916 51.1689 160.789 51.2076 160.686 51.2541V54.8188H160.314ZM166.172 54.8886C166.017 54.8886 165.857 54.8782 165.691 54.8576C165.531 54.8369 165.379 54.8111 165.234 54.7801C165.089 54.7491 164.968 54.7181 164.87 54.6871V48.8828L165.242 48.8053V51.0991C165.355 51.0113 165.518 50.9312 165.73 50.8589C165.942 50.7814 166.169 50.7427 166.412 50.7427C166.789 50.7427 167.109 50.8305 167.373 51.0062C167.636 51.1766 167.838 51.4169 167.977 51.7268C168.117 52.0368 168.187 52.3933 168.187 52.7962C168.187 53.2302 168.109 53.6048 167.954 53.9199C167.799 54.2299 167.572 54.4701 167.272 54.6406C166.972 54.8059 166.606 54.8886 166.172 54.8886ZM166.179 54.5476C166.531 54.5476 166.825 54.4778 167.063 54.3384C167.306 54.1989 167.489 54 167.613 53.7417C167.737 53.4782 167.799 53.163 167.799 52.7962C167.799 52.5483 167.768 52.321 167.706 52.1143C167.649 51.9025 167.561 51.7191 167.443 51.5641C167.329 51.4091 167.184 51.2903 167.009 51.2076C166.833 51.1198 166.626 51.0759 166.389 51.0759C166.146 51.0759 165.921 51.1172 165.714 51.1999C165.508 51.2825 165.35 51.3704 165.242 51.4634V54.4391C165.355 54.4701 165.495 54.4959 165.66 54.5166C165.826 54.5373 165.999 54.5476 166.179 54.5476ZM171.04 54.8808C170.59 54.8808 170.221 54.8007 169.932 54.6406C169.648 54.4753 169.436 54.235 169.296 53.9199C169.157 53.6048 169.087 53.2199 169.087 52.7652C169.087 52.3829 169.157 52.0394 169.296 51.7346C169.441 51.4298 169.642 51.187 169.901 51.0062C170.164 50.8253 170.472 50.7349 170.823 50.7349C171.164 50.7349 171.448 50.8124 171.675 50.9674C171.908 51.1224 172.084 51.3394 172.202 51.6183C172.321 51.8973 172.381 52.2202 172.381 52.587C172.381 52.6335 172.378 52.6826 172.373 52.7343C172.373 52.7807 172.37 52.8247 172.365 52.866H169.475C169.49 53.4291 169.624 53.8502 169.878 54.1291C170.136 54.4081 170.528 54.5476 171.055 54.5476C171.262 54.5476 171.451 54.5243 171.621 54.4778C171.797 54.4314 171.931 54.3823 172.024 54.3306L172.102 54.6483C172.003 54.7052 171.856 54.7594 171.66 54.8111C171.464 54.8576 171.257 54.8808 171.04 54.8808ZM169.482 52.556H172.001C171.996 52.2357 171.947 51.9645 171.854 51.7423C171.761 51.5202 171.626 51.3523 171.451 51.2386C171.28 51.125 171.071 51.0681 170.823 51.0681C170.544 51.0681 170.306 51.1405 170.11 51.2851C169.919 51.4246 169.769 51.608 169.661 51.8353C169.557 52.0575 169.498 52.2977 169.482 52.556ZM173.542 54.8188V50.9829C173.687 50.9312 173.873 50.8796 174.1 50.8279C174.333 50.7763 174.609 50.7504 174.93 50.7504C175.208 50.7504 175.438 50.7918 175.619 50.8744C175.805 50.9519 175.95 51.0656 176.053 51.2154C176.141 51.1379 176.249 51.0656 176.379 50.9984C176.508 50.9261 176.655 50.8667 176.82 50.8202C176.991 50.7737 177.174 50.7504 177.371 50.7504C177.722 50.7504 177.998 50.8124 178.2 50.9364C178.406 51.0604 178.554 51.2464 178.641 51.4944C178.729 51.7423 178.773 52.0549 178.773 52.432V54.8188H178.401V52.5793C178.401 52.2383 178.373 51.9593 178.316 51.7423C178.259 51.5202 178.153 51.3575 177.998 51.2541C177.843 51.1456 177.621 51.0914 177.332 51.0914C177.156 51.0914 176.999 51.1121 176.859 51.1534C176.72 51.1896 176.596 51.2386 176.487 51.3006C176.379 51.3626 176.283 51.4298 176.2 51.5021C176.252 51.6261 176.288 51.7656 176.309 51.9206C176.33 52.0756 176.34 52.2435 176.34 52.4243V54.8188H175.976V52.5793C175.976 52.2331 175.945 51.9516 175.883 51.7346C175.826 51.5176 175.72 51.3575 175.565 51.2541C175.41 51.1456 175.183 51.0914 174.883 51.0914C174.744 51.0914 174.607 51.0991 174.472 51.1146C174.338 51.1301 174.222 51.1508 174.124 51.1766C174.025 51.1973 173.956 51.218 173.914 51.2386V54.8188H173.542ZM180.313 54.8886C180.21 54.8886 180.127 54.8576 180.065 54.7956C180.008 54.7284 179.98 54.6457 179.98 54.5476C179.98 54.4494 180.008 54.3694 180.065 54.3074C180.127 54.2402 180.21 54.2066 180.313 54.2066C180.411 54.2066 180.491 54.2402 180.553 54.3074C180.615 54.3694 180.646 54.4494 180.646 54.5476C180.646 54.6406 180.615 54.7207 180.553 54.7878C180.491 54.855 180.411 54.8886 180.313 54.8886Z" fill="#4D2708"/>
</svg>
