<svg width="213" height="79" viewBox="0 0 213 79" fill="none" xmlns="http://www.w3.org/2000/svg">
<path d="M21.6185 24.5395L15.1608 27.1226V6.45777H6.55042V37.8856L37.5477 24.97L68.545 37.8856V6.45777H60.1499V27.1226L53.4768 24.3243V0H75.0027V48.0027L37.5477 32.5041L0.0926514 48.218V0H21.6185V24.5395Z" fill="#F2CDA7"/>
<path d="M21.6185 58.5504L15.1608 61.3488V72.5422H6.55042V57.4741L37.5477 44.5586L68.7602 57.4741V72.5422H60.1499V61.3488L53.4768 58.5504V79H75.0027V52.5232L37.5477 37.0245L0.0926514 52.7384V79H21.6185V58.5504Z" fill="#F2CDA7"/>
<path d="M38.7777 58.1199H44.8665V64.2086H38.7777V58.1199Z" fill="#F2CDA7"/>
<path d="M36.7482 58.1199H30.6594V64.2086H36.7482V58.1199Z" fill="#F2CDA7"/>
<path d="M36.7482 66.2382H30.6594V72.327H36.7482V66.2382Z" fill="#F2CDA7"/>
<path d="M38.7777 72.327H44.8665V66.2382H38.7777V72.327Z" fill="#F2CDA7"/>
<line x1="81.03" y1="12.8081" x2="81.03" y2="66.1923" stroke="#F2CDA7" stroke-width="0.861035"/>
<path d="M93.219 24.6389L91.9262 24.7966V38.0926L93.219 38.2503V38.4185H87.4066V38.2503L88.6994 38.0926V24.7966L87.4066 24.6389V24.4708H93.219V24.6389ZM110.457 26.7306L109.227 26.8777V38.0926L110.457 38.2503V38.4185H104.77V38.2503L106 38.0926V27.6135H105.958L101.564 38.5025H101.155L96.4142 27.6135H96.3722V36.6737C96.3722 37.031 96.5193 37.3849 96.8136 37.7353C97.1149 38.0786 97.4653 38.2503 97.8647 38.2503V38.4185H94.5223V38.2503C94.9217 38.2503 95.2686 38.0786 95.5629 37.7353C95.8572 37.3849 96.0043 37.031 96.0043 36.6737V26.8777L94.7851 26.7306V26.5624H99.168L102.658 34.54H102.763L106 26.5624H110.457V26.7306ZM118.382 26.4047C119.215 26.4047 119.993 26.5134 120.715 26.7306C121.437 26.9478 122.06 27.2491 122.586 27.6345C123.111 28.0129 123.56 28.4578 123.931 28.9694C124.31 29.4809 124.59 30.0379 124.772 30.6405C124.961 31.2362 125.056 31.8563 125.056 32.5009C125.056 33.3068 124.905 34.074 124.604 34.8028C124.31 35.5245 123.886 36.1657 123.332 36.7262C122.786 37.2868 122.081 37.7353 121.219 38.0716C120.365 38.4009 119.419 38.5656 118.382 38.5656C117.323 38.5656 116.36 38.4009 115.491 38.0716C114.622 37.7353 113.908 37.2868 113.347 36.7262C112.793 36.1657 112.362 35.5245 112.054 34.8028C111.753 34.074 111.602 33.3068 111.602 32.5009C111.602 31.6951 111.753 30.9278 112.054 30.1991C112.362 29.4634 112.793 28.8152 113.347 28.2546C113.908 27.687 114.622 27.2386 115.491 26.9093C116.36 26.5729 117.323 26.4047 118.382 26.4047ZM118.382 38.2503C118.851 38.2503 119.261 38.1697 119.611 38.0085C119.962 37.8474 120.284 37.5636 120.578 37.1572C120.873 36.7508 121.097 36.1587 121.251 35.3809C121.405 34.6031 121.482 33.6431 121.482 32.5009C121.482 31.576 121.43 30.7702 121.325 30.0835C121.219 29.3968 121.076 28.8432 120.894 28.4228C120.718 27.9954 120.494 27.6555 120.221 27.4033C119.948 27.144 119.664 26.9688 119.37 26.8777C119.082 26.7796 118.753 26.7306 118.382 26.7306C117.989 26.7306 117.639 26.7796 117.331 26.8777C117.029 26.9688 116.738 27.144 116.458 27.4033C116.178 27.6555 115.943 27.9954 115.754 28.4228C115.572 28.8432 115.425 29.3968 115.312 30.0835C115.207 30.7702 115.155 31.576 115.155 32.5009C115.155 33.4189 115.207 34.2212 115.312 34.9079C115.425 35.5946 115.572 36.1481 115.754 36.5686C115.943 36.989 116.178 37.3288 116.458 37.5881C116.738 37.8404 117.029 38.0155 117.331 38.1136C117.639 38.2047 117.989 38.2503 118.382 38.2503ZM133.118 32.4799C134.54 32.4799 135.686 32.7427 136.555 33.2682C137.43 33.7938 137.868 34.491 137.868 35.3598C137.868 36.3128 137.35 37.0626 136.313 37.6091C135.283 38.1487 133.899 38.4185 132.161 38.4185H126.443V38.2503L127.663 38.0926V26.8777L126.443 26.7306V26.5624H131.951C133.71 26.5624 135.03 26.8322 135.913 27.3717C136.803 27.9043 137.248 28.6365 137.248 29.5685C137.248 30.4303 136.87 31.124 136.113 31.6496C135.356 32.1751 134.358 32.4379 133.118 32.4379V32.4799ZM131.951 26.8777H130.9V32.2802H132.403C133.265 32.2802 133.696 31.3763 133.696 29.5685C133.696 27.7746 133.114 26.8777 131.951 26.8777ZM132.161 38.0926C132.862 38.0926 133.394 37.8999 133.759 37.5145C134.13 37.1221 134.316 36.4039 134.316 35.3598C134.316 34.8063 134.27 34.3438 134.179 33.9724C134.088 33.6011 133.951 33.3208 133.769 33.1316C133.587 32.9354 133.387 32.7987 133.17 32.7217C132.96 32.6446 132.704 32.606 132.403 32.606H130.9V38.0926H132.161ZM144.963 26.7306L143.744 26.8777V38.0926L144.963 38.2503V38.4185H139.287V38.2503L140.507 38.0926V26.8777L139.287 26.7306V26.5624H144.963V26.7306ZM156.672 34.9499H156.872L156.746 38.4185H146.519V38.2503L147.738 38.0926V26.8777L146.519 26.7306V26.5624H152.194V26.7306L150.975 26.8777V38.0926H153.256C154.195 38.0926 154.962 37.8299 155.558 37.3043C156.153 36.7718 156.518 36.0395 156.651 35.1076L156.672 34.9499ZM163.693 26.7306L162.474 26.8777V38.0926L163.693 38.2503V38.4185H158.017V38.2503L159.237 38.0926V26.8777L158.017 26.7306V26.5624H163.693V26.7306ZM172.995 23.0518L170.094 25.7846H169.831L170.693 22.8521H172.995V23.0518ZM176.831 38.0506L178.208 38.2503V38.4185H172.238V38.2503L173.405 38.0506L172.028 34.6767H166.993L166.584 35.7067C166.45 36.05 166.384 36.3654 166.384 36.6527C166.384 37.0941 166.549 37.4725 166.878 37.7878C167.214 38.0961 167.666 38.2503 168.234 38.2503V38.4185H163.956V38.2503L165.27 38.0506L169.831 26.5624H172.154L176.831 38.0506ZM167.12 34.3508H171.902L169.548 28.6015H169.379L167.12 34.3508ZM190.916 36.2848H191.105V36.5265C191.105 37.1432 190.877 37.6372 190.422 38.0085C189.973 38.3799 189.311 38.5656 188.435 38.5656C187.65 38.5656 187.02 38.3519 186.543 37.9245C186.067 37.497 185.829 36.9365 185.829 36.2427V34.54C185.829 34.0705 185.678 33.6886 185.377 33.3943C185.075 33.1 184.662 32.9529 184.136 32.9529H182.844V38.0926L184.063 38.2503V38.4185H178.387V38.2503L179.606 38.0926V26.8777L178.387 26.7306V26.5624H184.242C185.993 26.5624 187.279 26.8602 188.099 27.4558C188.926 28.0444 189.339 28.8082 189.339 29.7471C189.339 30.63 188.999 31.3518 188.32 31.9123C187.64 32.4729 186.589 32.7532 185.166 32.7532V32.8268C186.463 32.8338 187.43 33.086 188.067 33.5835C188.712 34.081 189.034 34.7607 189.034 35.6226V36.5265C189.034 37.2693 189.301 37.6407 189.833 37.6407C190.149 37.6407 190.394 37.5391 190.569 37.3359C190.751 37.1256 190.86 36.8559 190.895 36.5265L190.916 36.2848ZM182.844 32.6271H184.242C184.487 32.6271 184.693 32.5885 184.862 32.5115C185.037 32.4344 185.198 32.2977 185.345 32.1015C185.492 31.8983 185.601 31.6005 185.671 31.2081C185.748 30.8157 185.787 30.3287 185.787 29.7471C185.787 29.1585 185.748 28.668 185.671 28.2756C185.594 27.8832 185.478 27.5889 185.324 27.3927C185.177 27.1965 185.019 27.0634 184.851 26.9933C184.683 26.9163 184.48 26.8777 184.242 26.8777H182.844V32.6271ZM197.601 26.7306L196.381 26.8777V38.0926L197.601 38.2503V38.4185H191.925V38.2503L193.144 38.0926V26.8777L191.925 26.7306V26.5624H197.601V26.7306ZM210.739 38.0506L212.116 38.2503V38.4185H206.146V38.2503L207.312 38.0506L205.936 34.6767H200.901L200.491 35.7067C200.358 36.05 200.291 36.3654 200.291 36.6527C200.291 37.0941 200.456 37.4725 200.785 37.7878C201.122 38.0961 201.574 38.2503 202.141 38.2503V38.4185H197.863V38.2503L199.177 38.0506L203.739 26.5624H206.062L210.739 38.0506ZM201.027 34.3508H205.809L203.455 28.6015H203.287L201.027 34.3508Z" fill="#F2CDA7"/>
<path d="M92.6084 54.9118C92.1176 54.9118 91.6862 54.7982 91.3142 54.5709C90.9423 54.3436 90.653 54.0233 90.4463 53.61C90.2397 53.1915 90.1363 52.6981 90.1363 52.1298C90.1363 51.7114 90.1983 51.3317 90.3223 50.9907C90.4515 50.6497 90.6271 50.3578 90.8493 50.115C91.0766 49.8722 91.3426 49.6862 91.6475 49.5571C91.9523 49.4227 92.2855 49.3556 92.6471 49.3556C92.8589 49.3556 93.0527 49.3711 93.2283 49.4021C93.4091 49.4331 93.5667 49.4744 93.701 49.5261C93.8353 49.5726 93.949 49.6268 94.042 49.6888L93.9103 50.0143C93.7708 49.9316 93.5925 49.8619 93.3756 49.805C93.1637 49.743 92.9287 49.712 92.6704 49.712C92.2467 49.712 91.8748 49.8154 91.5545 50.022C91.2342 50.2287 90.9862 50.5154 90.8105 50.8822C90.6349 51.2438 90.5471 51.6649 90.5471 52.1453C90.5471 52.631 90.6323 53.0546 90.8028 53.4162C90.9733 53.7727 91.2135 54.0517 91.5235 54.2531C91.8386 54.4546 92.208 54.5554 92.6316 54.5554C92.9054 54.5554 93.156 54.5295 93.3833 54.4779C93.6158 54.421 93.8095 54.3539 93.9645 54.2764L94.073 54.6096C93.9283 54.6871 93.7269 54.7569 93.4685 54.8188C93.2154 54.8808 92.9287 54.9118 92.6084 54.9118ZM96.5339 54.8886C96.1877 54.8886 95.8778 54.8033 95.604 54.6329C95.3353 54.4572 95.1261 54.2144 94.9763 53.9044C94.8265 53.5893 94.7515 53.2251 94.7515 52.8118C94.7515 52.3985 94.8265 52.0368 94.9763 51.7269C95.1261 51.4169 95.3353 51.1741 95.604 50.9984C95.8778 50.8228 96.1903 50.735 96.5416 50.735C96.8929 50.735 97.2029 50.8228 97.4716 50.9984C97.7402 51.1741 97.9494 51.4169 98.0992 51.7269C98.2542 52.0368 98.3317 52.3985 98.3317 52.8118C98.3317 53.2251 98.2542 53.5893 98.0992 53.9044C97.9494 54.2144 97.7402 54.4572 97.4716 54.6329C97.2029 54.8033 96.8904 54.8886 96.5339 54.8886ZM96.5339 54.5476C96.8232 54.5476 97.0712 54.4779 97.2778 54.3384C97.4896 54.1937 97.6524 53.9923 97.766 53.7339C97.8848 53.4705 97.9443 53.1631 97.9443 52.8118C97.9443 52.4605 97.8848 52.1557 97.766 51.8974C97.6524 51.6339 97.4896 51.4324 97.2778 51.2929C97.0712 51.1483 96.8232 51.0759 96.5339 51.0759C96.2549 51.0759 96.0095 51.1483 95.7977 51.2929C95.5859 51.4324 95.4231 51.6339 95.3095 51.8974C95.1958 52.1557 95.139 52.4605 95.139 52.8118C95.139 53.1579 95.1958 53.4627 95.3095 53.7262C95.4231 53.9897 95.5859 54.1937 95.7977 54.3384C96.0095 54.4779 96.2549 54.5476 96.5339 54.5476ZM99.4641 54.8188V50.9829C99.6191 50.9313 99.818 50.8796 100.061 50.8279C100.309 50.7763 100.601 50.7505 100.936 50.7505C101.334 50.7505 101.644 50.8254 101.866 50.9752C102.094 51.125 102.251 51.3368 102.339 51.6106C102.432 51.8844 102.479 52.2125 102.479 52.5948V54.8188H102.107V52.742C102.107 52.3546 102.073 52.0394 102.006 51.7966C101.939 51.5538 101.815 51.3756 101.634 51.2619C101.458 51.1483 101.21 51.0914 100.89 51.0914C100.637 51.0914 100.412 51.1095 100.216 51.1457C100.025 51.1818 99.8981 51.2128 99.8361 51.2387V54.8188H99.4641ZM103.8 54.8188V50.3552C103.8 49.8283 103.917 49.4382 104.149 49.1851C104.382 48.9319 104.735 48.8054 105.211 48.8054C105.376 48.8054 105.526 48.8209 105.66 48.8519C105.795 48.8829 105.893 48.9139 105.955 48.9449L105.877 49.2703C105.8 49.2342 105.702 49.2032 105.583 49.1773C105.464 49.1515 105.342 49.1386 105.219 49.1386C104.857 49.1386 104.591 49.2342 104.42 49.4253C104.255 49.6113 104.172 49.9264 104.172 50.3707V50.8279H105.815V51.1612H104.172V54.8188H103.8ZM106.652 54.8188V50.8279H107.016V54.8188H106.652ZM106.83 49.7585C106.748 49.7585 106.675 49.7301 106.613 49.6733C106.557 49.6165 106.528 49.539 106.528 49.4408C106.528 49.3478 106.557 49.2729 106.613 49.2161C106.675 49.1593 106.748 49.1308 106.83 49.1308C106.918 49.1308 106.991 49.1593 107.047 49.2161C107.104 49.2729 107.133 49.3478 107.133 49.4408C107.133 49.539 107.104 49.6165 107.047 49.6733C106.991 49.7301 106.918 49.7585 106.83 49.7585ZM109.626 54.8808C109.306 54.8808 109.029 54.8369 108.797 54.7491C108.57 54.6613 108.397 54.527 108.278 54.3461C108.159 54.1602 108.099 53.9277 108.099 53.6487C108.099 53.3749 108.164 53.1502 108.293 52.9745C108.422 52.7937 108.608 52.662 108.851 52.5793C109.099 52.4915 109.396 52.4476 109.742 52.4476C109.892 52.4476 110.052 52.4631 110.223 52.4941C110.393 52.5199 110.525 52.5483 110.618 52.5793V52.3003C110.618 52.0368 110.584 51.8147 110.517 51.6339C110.455 51.4479 110.347 51.3084 110.192 51.2154C110.037 51.1173 109.817 51.0682 109.533 51.0682C109.332 51.0682 109.148 51.0863 108.983 51.1224C108.818 51.1586 108.688 51.1999 108.595 51.2464L108.541 50.9132C108.66 50.8615 108.807 50.8202 108.983 50.7892C109.159 50.753 109.357 50.735 109.58 50.735C109.915 50.735 110.187 50.7944 110.393 50.9132C110.6 51.032 110.75 51.1999 110.843 51.4169C110.941 51.6287 110.99 51.8844 110.99 52.1841V54.7026C110.825 54.7491 110.621 54.7904 110.378 54.8266C110.135 54.8628 109.884 54.8808 109.626 54.8808ZM109.68 54.5476C109.846 54.5476 110.008 54.5399 110.169 54.5244C110.334 54.5089 110.484 54.483 110.618 54.4469V52.897C110.52 52.8557 110.398 52.8221 110.254 52.7963C110.109 52.7704 109.941 52.7575 109.75 52.7575C109.497 52.7575 109.275 52.7885 109.084 52.8505C108.898 52.9073 108.75 53.0003 108.642 53.1295C108.539 53.2587 108.487 53.4291 108.487 53.641C108.487 53.9613 108.585 54.1937 108.781 54.3384C108.983 54.4779 109.283 54.5476 109.68 54.5476ZM112.306 54.8188V50.9829C112.461 50.9313 112.66 50.8796 112.903 50.8279C113.151 50.7763 113.443 50.7505 113.779 50.7505C114.177 50.7505 114.487 50.8254 114.709 50.9752C114.936 51.125 115.094 51.3368 115.181 51.6106C115.274 51.8844 115.321 52.2125 115.321 52.5948V54.8188H114.949V52.742C114.949 52.3546 114.915 52.0394 114.848 51.7966C114.781 51.5538 114.657 51.3756 114.476 51.2619C114.301 51.1483 114.053 51.0914 113.732 51.0914C113.479 51.0914 113.254 51.1095 113.058 51.1457C112.867 51.1818 112.74 51.2128 112.678 51.2387V54.8188H112.306ZM117.906 56.268C117.818 56.268 117.73 56.2602 117.642 56.2447C117.555 56.2292 117.477 56.2086 117.41 56.1827L117.456 55.9193C117.513 55.9399 117.578 55.9554 117.65 55.9657C117.728 55.9761 117.803 55.9812 117.875 55.9812C118.014 55.9812 118.118 55.9554 118.185 55.9038C118.257 55.8573 118.293 55.7875 118.293 55.6945C118.293 55.5912 118.255 55.5085 118.177 55.4465C118.1 55.3897 117.97 55.3303 117.79 55.2683C117.815 55.2063 117.844 55.1392 117.875 55.0668C117.906 54.9945 117.939 54.9248 117.976 54.8576C117.645 54.8214 117.361 54.7207 117.123 54.5554C116.891 54.3849 116.713 54.155 116.589 53.8657C116.47 53.5712 116.41 53.2302 116.41 52.8428C116.41 52.4088 116.483 52.0368 116.627 51.7269C116.777 51.4117 116.986 51.1689 117.255 50.9984C117.529 50.8279 117.849 50.7427 118.216 50.7427C118.433 50.7427 118.624 50.7608 118.789 50.797C118.96 50.8279 119.102 50.8719 119.216 50.9287L119.115 51.2542C119.006 51.2025 118.88 51.1612 118.735 51.1302C118.59 51.0992 118.423 51.0837 118.231 51.0837C117.772 51.0837 117.418 51.2361 117.17 51.5409C116.922 51.8457 116.798 52.2797 116.798 52.8428C116.798 53.1992 116.852 53.504 116.96 53.7572C117.069 54.0103 117.234 54.2041 117.456 54.3384C117.679 54.4727 117.958 54.5399 118.293 54.5399C118.459 54.5399 118.627 54.5166 118.797 54.4701C118.973 54.4236 119.11 54.372 119.208 54.3151L119.285 54.6406C119.182 54.7026 119.035 54.7569 118.844 54.8033C118.658 54.8498 118.461 54.8757 118.255 54.8808C118.239 54.917 118.224 54.9532 118.208 54.9893C118.193 55.0255 118.177 55.0617 118.162 55.0978C118.317 55.165 118.433 55.2451 118.51 55.3381C118.593 55.4362 118.634 55.555 118.634 55.6945C118.634 55.803 118.609 55.8986 118.557 55.9812C118.505 56.0691 118.425 56.1388 118.317 56.1905C118.208 56.2421 118.071 56.268 117.906 56.268ZM121.394 54.8808C121.074 54.8808 120.797 54.8369 120.565 54.7491C120.337 54.6613 120.164 54.527 120.045 54.3461C119.927 54.1602 119.867 53.9277 119.867 53.6487C119.867 53.3749 119.932 53.1502 120.061 52.9745C120.19 52.7937 120.376 52.662 120.619 52.5793C120.867 52.4915 121.164 52.4476 121.51 52.4476C121.66 52.4476 121.82 52.4631 121.991 52.4941C122.161 52.5199 122.293 52.5483 122.386 52.5793V52.3003C122.386 52.0368 122.352 51.8147 122.285 51.6339C122.223 51.4479 122.115 51.3084 121.96 51.2154C121.805 51.1173 121.585 51.0682 121.301 51.0682C121.099 51.0682 120.916 51.0863 120.751 51.1224C120.585 51.1586 120.456 51.1999 120.363 51.2464L120.309 50.9132C120.428 50.8615 120.575 50.8202 120.751 50.7892C120.926 50.753 121.125 50.735 121.347 50.735C121.683 50.735 121.954 50.7944 122.161 50.9132C122.368 51.032 122.518 51.1999 122.611 51.4169C122.709 51.6287 122.758 51.8844 122.758 52.1841V54.7026C122.592 54.7491 122.388 54.7904 122.146 54.8266C121.903 54.8628 121.652 54.8808 121.394 54.8808ZM121.448 54.5476C121.613 54.5476 121.776 54.5399 121.936 54.5244C122.102 54.5089 122.251 54.483 122.386 54.4469V52.897C122.288 52.8557 122.166 52.8221 122.022 52.7963C121.877 52.7704 121.709 52.7575 121.518 52.7575C121.265 52.7575 121.043 52.7885 120.851 52.8505C120.665 52.9073 120.518 53.0003 120.41 53.1295C120.306 53.2587 120.255 53.4291 120.255 53.641C120.255 53.9613 120.353 54.1937 120.549 54.3384C120.751 54.4779 121.05 54.5476 121.448 54.5476ZM125.822 56.2525V50.9752C125.941 50.9287 126.073 50.8899 126.218 50.8589C126.362 50.8279 126.517 50.8021 126.683 50.7815C126.853 50.7608 127.031 50.7505 127.217 50.7505C127.605 50.7505 127.943 50.8357 128.232 51.0062C128.522 51.1715 128.744 51.4091 128.899 51.7191C129.059 52.0239 129.139 52.3907 129.139 52.8195C129.139 53.238 129.067 53.6022 128.922 53.9122C128.777 54.2222 128.571 54.4624 128.302 54.6329C128.034 54.8033 127.716 54.8886 127.349 54.8886C127.122 54.8886 126.905 54.855 126.698 54.7879C126.491 54.7155 126.323 54.6277 126.194 54.5244V56.2525H125.822ZM127.318 54.5476C127.556 54.5476 127.762 54.5089 127.938 54.4314C128.119 54.3487 128.269 54.2325 128.387 54.0827C128.511 53.9277 128.602 53.7443 128.659 53.5325C128.721 53.3206 128.752 53.083 128.752 52.8195C128.752 52.4269 128.682 52.104 128.542 51.8509C128.408 51.5925 128.219 51.4014 127.977 51.2774C127.739 51.1534 127.463 51.0914 127.148 51.0914C126.972 51.0914 126.799 51.1043 126.628 51.1302C126.463 51.156 126.318 51.187 126.194 51.2232V54.1679C126.313 54.2712 126.473 54.3616 126.675 54.4391C126.881 54.5115 127.096 54.5476 127.318 54.5476ZM131.504 54.8808C131.184 54.8808 130.908 54.8369 130.675 54.7491C130.448 54.6613 130.275 54.527 130.156 54.3461C130.037 54.1602 129.978 53.9277 129.978 53.6487C129.978 53.3749 130.042 53.1502 130.171 52.9745C130.301 52.7937 130.487 52.662 130.729 52.5793C130.977 52.4915 131.274 52.4476 131.621 52.4476C131.77 52.4476 131.931 52.4631 132.101 52.4941C132.271 52.5199 132.403 52.5483 132.496 52.5793V52.3003C132.496 52.0368 132.463 51.8147 132.395 51.6339C132.333 51.4479 132.225 51.3084 132.07 51.2154C131.915 51.1173 131.695 51.0682 131.411 51.0682C131.21 51.0682 131.026 51.0863 130.861 51.1224C130.696 51.1586 130.567 51.1999 130.474 51.2464L130.419 50.9132C130.538 50.8615 130.685 50.8202 130.861 50.7892C131.037 50.753 131.236 50.735 131.458 50.735C131.794 50.735 132.065 50.7944 132.271 50.9132C132.478 51.032 132.628 51.1999 132.721 51.4169C132.819 51.6287 132.868 51.8844 132.868 52.1841V54.7026C132.703 54.7491 132.499 54.7904 132.256 54.8266C132.013 54.8628 131.763 54.8808 131.504 54.8808ZM131.559 54.5476C131.724 54.5476 131.887 54.5399 132.047 54.5244C132.212 54.5089 132.362 54.483 132.496 54.4469V52.897C132.398 52.8557 132.277 52.8221 132.132 52.7963C131.987 52.7704 131.819 52.7575 131.628 52.7575C131.375 52.7575 131.153 52.7885 130.962 52.8505C130.776 52.9073 130.629 53.0003 130.52 53.1295C130.417 53.2587 130.365 53.4291 130.365 53.641C130.365 53.9613 130.463 54.1937 130.66 54.3384C130.861 54.4779 131.161 54.5476 131.559 54.5476ZM134.185 54.8188V51.0294C134.355 50.9468 134.546 50.8796 134.758 50.8279C134.975 50.7763 135.208 50.7505 135.456 50.7505C135.559 50.7505 135.657 50.7556 135.75 50.766C135.843 50.7763 135.926 50.7892 135.998 50.8047C136.076 50.8202 136.14 50.8383 136.192 50.8589L136.122 51.1767C136.055 51.156 135.959 51.1379 135.835 51.1224C135.711 51.1018 135.572 51.0914 135.417 51.0914C135.246 51.0914 135.086 51.1069 134.936 51.1379C134.787 51.1689 134.66 51.2077 134.557 51.2542V54.8188H134.185ZM138.224 54.8808C137.904 54.8808 137.628 54.8369 137.395 54.7491C137.168 54.6613 136.995 54.527 136.876 54.3461C136.757 54.1602 136.698 53.9277 136.698 53.6487C136.698 53.3749 136.762 53.1502 136.892 52.9745C137.021 52.7937 137.207 52.662 137.449 52.5793C137.697 52.4915 137.995 52.4476 138.341 52.4476C138.49 52.4476 138.651 52.4631 138.821 52.4941C138.992 52.5199 139.123 52.5483 139.216 52.5793V52.3003C139.216 52.0368 139.183 51.8147 139.116 51.6339C139.054 51.4479 138.945 51.3084 138.79 51.2154C138.635 51.1173 138.416 51.0682 138.131 51.0682C137.93 51.0682 137.747 51.0863 137.581 51.1224C137.416 51.1586 137.287 51.1999 137.194 51.2464L137.14 50.9132C137.258 50.8615 137.406 50.8202 137.581 50.7892C137.757 50.753 137.956 50.735 138.178 50.735C138.514 50.735 138.785 50.7944 138.992 50.9132C139.198 51.032 139.348 51.1999 139.441 51.4169C139.539 51.6287 139.588 51.8844 139.588 52.1841V54.7026C139.423 54.7491 139.219 54.7904 138.976 54.8266C138.733 54.8628 138.483 54.8808 138.224 54.8808ZM138.279 54.5476C138.444 54.5476 138.607 54.5399 138.767 54.5244C138.932 54.5089 139.082 54.483 139.216 54.4469V52.897C139.118 52.8557 138.997 52.8221 138.852 52.7963C138.707 52.7704 138.54 52.7575 138.348 52.7575C138.095 52.7575 137.873 52.7885 137.682 52.8505C137.496 52.9073 137.349 53.0003 137.24 53.1295C137.137 53.2587 137.085 53.4291 137.085 53.641C137.085 53.9613 137.183 54.1937 137.38 54.3384C137.581 54.4779 137.881 54.5476 138.279 54.5476ZM142.653 54.8188V50.9829C142.798 50.9313 142.984 50.8796 143.211 50.8279C143.443 50.7763 143.72 50.7505 144.04 50.7505C144.319 50.7505 144.549 50.7918 144.73 50.8744C144.916 50.9519 145.06 51.0656 145.164 51.2154C145.252 51.1379 145.36 51.0656 145.489 50.9984C145.618 50.9261 145.766 50.8667 145.931 50.8202C146.101 50.7737 146.285 50.7505 146.481 50.7505C146.832 50.7505 147.109 50.8124 147.31 50.9364C147.517 51.0604 147.664 51.2464 147.752 51.4944C147.84 51.7424 147.884 52.0549 147.884 52.4321V54.8188H147.512V52.5793C147.512 52.2383 147.483 51.9593 147.427 51.7424C147.37 51.5202 147.264 51.3575 147.109 51.2542C146.954 51.1457 146.732 51.0914 146.442 51.0914C146.267 51.0914 146.109 51.1121 145.97 51.1534C145.83 51.1896 145.706 51.2387 145.598 51.3007C145.489 51.3627 145.394 51.4298 145.311 51.5021C145.363 51.6261 145.399 51.7656 145.419 51.9206C145.44 52.0756 145.45 52.2435 145.45 52.4243V54.8188H145.086V52.5793C145.086 52.2332 145.055 51.9516 144.993 51.7346C144.936 51.5176 144.83 51.3575 144.675 51.2542C144.521 51.1457 144.293 51.0914 143.994 51.0914C143.854 51.0914 143.717 51.0992 143.583 51.1147C143.449 51.1302 143.332 51.1508 143.234 51.1767C143.136 51.1973 143.066 51.218 143.025 51.2387V54.8188H142.653ZM150.756 54.8886C150.41 54.8886 150.1 54.8033 149.826 54.6329C149.558 54.4572 149.349 54.2144 149.199 53.9044C149.049 53.5893 148.974 53.2251 148.974 52.8118C148.974 52.3985 149.049 52.0368 149.199 51.7269C149.349 51.4169 149.558 51.1741 149.826 50.9984C150.1 50.8228 150.413 50.735 150.764 50.735C151.115 50.735 151.425 50.8228 151.694 50.9984C151.963 51.1741 152.172 51.4169 152.322 51.7269C152.477 52.0368 152.554 52.3985 152.554 52.8118C152.554 53.2251 152.477 53.5893 152.322 53.9044C152.172 54.2144 151.963 54.4572 151.694 54.6329C151.425 54.8033 151.113 54.8886 150.756 54.8886ZM150.756 54.5476C151.046 54.5476 151.294 54.4779 151.5 54.3384C151.712 54.1937 151.875 53.9923 151.989 53.7339C152.107 53.4705 152.167 53.1631 152.167 52.8118C152.167 52.4605 152.107 52.1557 151.989 51.8974C151.875 51.6339 151.712 51.4324 151.5 51.2929C151.294 51.1483 151.046 51.0759 150.756 51.0759C150.477 51.0759 150.232 51.1483 150.02 51.2929C149.808 51.4324 149.646 51.6339 149.532 51.8974C149.418 52.1557 149.362 52.4605 149.362 52.8118C149.362 53.1579 149.418 53.4627 149.532 53.7262C149.646 53.9897 149.808 54.1937 150.02 54.3384C150.232 54.4779 150.477 54.5476 150.756 54.5476ZM153.687 54.8188V51.0294C153.857 50.9468 154.048 50.8796 154.26 50.8279C154.477 50.7763 154.71 50.7505 154.958 50.7505C155.061 50.7505 155.159 50.7556 155.252 50.766C155.345 50.7763 155.428 50.7892 155.5 50.8047C155.577 50.8202 155.642 50.8383 155.694 50.8589L155.624 51.1767C155.557 51.156 155.461 51.1379 155.337 51.1224C155.213 51.1018 155.074 51.0914 154.919 51.0914C154.748 51.0914 154.588 51.1069 154.438 51.1379C154.288 51.1689 154.162 51.2077 154.059 51.2542V54.8188H153.687ZM157.726 54.8808C157.406 54.8808 157.13 54.8369 156.897 54.7491C156.67 54.6613 156.497 54.527 156.378 54.3461C156.259 54.1602 156.2 53.9277 156.2 53.6487C156.2 53.3749 156.264 53.1502 156.393 52.9745C156.523 52.7937 156.709 52.662 156.951 52.5793C157.199 52.4915 157.496 52.4476 157.843 52.4476C157.992 52.4476 158.153 52.4631 158.323 52.4941C158.494 52.5199 158.625 52.5483 158.718 52.5793V52.3003C158.718 52.0368 158.685 51.8147 158.618 51.6339C158.556 51.4479 158.447 51.3084 158.292 51.2154C158.137 51.1173 157.918 51.0682 157.633 51.0682C157.432 51.0682 157.249 51.0863 157.083 51.1224C156.918 51.1586 156.789 51.1999 156.696 51.2464L156.641 50.9132C156.76 50.8615 156.908 50.8202 157.083 50.7892C157.259 50.753 157.458 50.735 157.68 50.735C158.016 50.735 158.287 50.7944 158.494 50.9132C158.7 51.032 158.85 51.1999 158.943 51.4169C159.041 51.6287 159.09 51.8844 159.09 52.1841V54.7026C158.925 54.7491 158.721 54.7904 158.478 54.8266C158.235 54.8628 157.985 54.8808 157.726 54.8808ZM157.781 54.5476C157.946 54.5476 158.109 54.5399 158.269 54.5244C158.434 54.5089 158.584 54.483 158.718 54.4469V52.897C158.62 52.8557 158.499 52.8221 158.354 52.7963C158.209 52.7704 158.042 52.7575 157.85 52.7575C157.597 52.7575 157.375 52.7885 157.184 52.8505C156.998 52.9073 156.851 53.0003 156.742 53.1295C156.639 53.2587 156.587 53.4291 156.587 53.641C156.587 53.9613 156.685 54.1937 156.882 54.3384C157.083 54.4779 157.383 54.5476 157.781 54.5476ZM160.407 54.8188V51.0294C160.577 50.9468 160.768 50.8796 160.98 50.8279C161.197 50.7763 161.43 50.7505 161.678 50.7505C161.781 50.7505 161.879 50.7556 161.972 50.766C162.065 50.7763 162.148 50.7892 162.22 50.8047C162.298 50.8202 162.362 50.8383 162.414 50.8589L162.344 51.1767C162.277 51.156 162.181 51.1379 162.057 51.1224C161.933 51.1018 161.794 51.0914 161.639 51.0914C161.468 51.0914 161.308 51.1069 161.158 51.1379C161.009 51.1689 160.882 51.2077 160.779 51.2542V54.8188H160.407ZM166.264 54.8886C166.109 54.8886 165.949 54.8783 165.784 54.8576C165.624 54.8369 165.471 54.8111 165.327 54.7801C165.182 54.7491 165.061 54.7181 164.962 54.6871V48.8829L165.334 48.8054V51.0992C165.448 51.0113 165.611 50.9313 165.823 50.8589C166.034 50.7815 166.262 50.7427 166.505 50.7427C166.882 50.7427 167.202 50.8305 167.466 51.0062C167.729 51.1767 167.93 51.4169 168.07 51.7269C168.209 52.0368 168.279 52.3933 168.279 52.7963C168.279 53.2302 168.202 53.6048 168.047 53.9199C167.892 54.2299 167.664 54.4701 167.365 54.6406C167.065 54.8059 166.698 54.8886 166.264 54.8886ZM166.272 54.5476C166.623 54.5476 166.918 54.4779 167.156 54.3384C167.398 54.1989 167.582 54 167.706 53.7417C167.83 53.4782 167.892 53.1631 167.892 52.7963C167.892 52.5483 167.861 52.321 167.799 52.1143C167.742 51.9025 167.654 51.7191 167.535 51.5641C167.422 51.4091 167.277 51.2903 167.101 51.2077C166.926 51.1198 166.719 51.0759 166.481 51.0759C166.239 51.0759 166.014 51.1173 165.807 51.1999C165.601 51.2826 165.443 51.3704 165.334 51.4634V54.4391C165.448 54.4701 165.588 54.496 165.753 54.5166C165.918 54.5373 166.091 54.5476 166.272 54.5476ZM171.133 54.8808C170.683 54.8808 170.314 54.8008 170.024 54.6406C169.74 54.4753 169.529 54.2351 169.389 53.9199C169.25 53.6048 169.18 53.2199 169.18 52.7653C169.18 52.383 169.25 52.0394 169.389 51.7346C169.534 51.4298 169.735 51.187 169.993 51.0062C170.257 50.8254 170.564 50.735 170.916 50.735C171.257 50.735 171.541 50.8125 171.768 50.9674C172.001 51.1224 172.176 51.3394 172.295 51.6184C172.414 51.8974 172.473 52.2202 172.473 52.587C172.473 52.6335 172.471 52.6826 172.466 52.7343C172.466 52.7808 172.463 52.8247 172.458 52.866H169.567C169.583 53.4291 169.717 53.8502 169.97 54.1292C170.229 54.4081 170.621 54.5476 171.148 54.5476C171.355 54.5476 171.543 54.5244 171.714 54.4779C171.889 54.4314 172.024 54.3823 172.117 54.3306L172.194 54.6484C172.096 54.7052 171.949 54.7594 171.753 54.8111C171.556 54.8576 171.35 54.8808 171.133 54.8808ZM169.575 52.556H172.094C172.088 52.2357 172.039 51.9645 171.946 51.7424C171.853 51.5202 171.719 51.3523 171.543 51.2387C171.373 51.125 171.164 51.0682 170.916 51.0682C170.637 51.0682 170.399 51.1405 170.203 51.2852C170.012 51.4246 169.862 51.608 169.753 51.8354C169.65 52.0575 169.591 52.2977 169.575 52.556ZM173.635 54.8188V50.9829C173.78 50.9313 173.966 50.8796 174.193 50.8279C174.425 50.7763 174.702 50.7505 175.022 50.7505C175.301 50.7505 175.531 50.7918 175.712 50.8744C175.898 50.9519 176.043 51.0656 176.146 51.2154C176.234 51.1379 176.342 51.0656 176.471 50.9984C176.6 50.9261 176.748 50.8667 176.913 50.8202C177.084 50.7737 177.267 50.7505 177.463 50.7505C177.815 50.7505 178.091 50.8124 178.292 50.9364C178.499 51.0604 178.646 51.2464 178.734 51.4944C178.822 51.7424 178.866 52.0549 178.866 52.4321V54.8188H178.494V52.5793C178.494 52.2383 178.465 51.9593 178.409 51.7424C178.352 51.5202 178.246 51.3575 178.091 51.2542C177.936 51.1457 177.714 51.0914 177.424 51.0914C177.249 51.0914 177.091 51.1121 176.952 51.1534C176.812 51.1896 176.688 51.2387 176.58 51.3007C176.471 51.3627 176.376 51.4298 176.293 51.5021C176.345 51.6261 176.381 51.7656 176.402 51.9206C176.422 52.0756 176.433 52.2435 176.433 52.4243V54.8188H176.068V52.5793C176.068 52.2332 176.037 51.9516 175.975 51.7346C175.919 51.5176 175.813 51.3575 175.658 51.2542C175.503 51.1457 175.275 51.0914 174.976 51.0914C174.836 51.0914 174.699 51.0992 174.565 51.1147C174.431 51.1302 174.314 51.1508 174.216 51.1767C174.118 51.1973 174.048 51.218 174.007 51.2387V54.8188H173.635ZM180.406 54.8886C180.302 54.8886 180.22 54.8576 180.158 54.7956C180.101 54.7284 180.072 54.6458 180.072 54.5476C180.072 54.4495 180.101 54.3694 180.158 54.3074C180.22 54.2402 180.302 54.2067 180.406 54.2067C180.504 54.2067 180.584 54.2402 180.646 54.3074C180.708 54.3694 180.739 54.4495 180.739 54.5476C180.739 54.6406 180.708 54.7207 180.646 54.7879C180.584 54.855 180.504 54.8886 180.406 54.8886Z" fill="#F2CDA7"/>
</svg>
