<svg xmlns="http://www.w3.org/2000/svg" width="213" height="79" fill="none"><path fill="#4D2708" d="m21.526 24.54-6.458 2.583V6.458h-8.61v31.428L37.455 24.97l30.997 12.916V6.458h-8.395v20.665l-6.673-2.799V0H74.91v48.003L37.455 32.504 0 48.218V0h21.526z"/><path fill="#4D2708" d="m21.526 58.55-6.458 2.799v11.193h-8.61V57.474L37.455 44.56l31.213 12.915v15.068h-8.61V61.35l-6.674-2.799V79H74.91V52.523L37.455 37.025 0 52.738V79h21.526z"/><path fill="#4D2708" d="M38.685 58.12h6.089v6.089h-6.089zM36.656 58.12h-6.09v6.089h6.09zM36.656 66.238h-6.09v6.089h6.09zM38.685 72.327h6.089v-6.089h-6.089z"/><path stroke="#4D2708" stroke-width=".861" d="M80.937 12.808v53.384"/><path fill="#4D2708" d="m93.126 24.639-1.293.157v13.296l1.293.158v.168h-5.812v-.168l1.293-.158V24.796l-1.293-.157v-.168h5.812zm17.238 2.091-1.23.148v11.214l1.23.158v.168h-5.686v-.168l1.229-.158V27.613h-.042l-4.393 10.89h-.41l-4.74-10.89h-.043v9.06q0 .537.442 1.062.452.515 1.051.515v.168H94.43v-.168q.6 0 1.04-.515.441-.525.442-1.062v-9.795l-1.22-.148v-.168h4.383l3.49 7.978h.105l3.237-7.978h4.457zm7.925-.325q1.251 0 2.333.325 1.083.327 1.871.904.788.569 1.346 1.335.567.768.84 1.671.284.894.284 1.86 0 1.21-.452 2.303a5.9 5.9 0 0 1-1.272 1.923q-.819.841-2.112 1.345-1.283.495-2.838.494-1.587 0-2.891-.494-1.302-.504-2.144-1.345a6.2 6.2 0 0 1-1.293-1.923 6 6 0 0 1-.451-2.302q0-1.209.451-2.302a6.1 6.1 0 0 1 1.293-1.945q.842-.851 2.144-1.345 1.304-.504 2.891-.504m0 11.845q.704 0 1.23-.242.525-.241.967-.851.441-.609.672-1.776t.232-2.88a16 16 0 0 0-.158-2.418q-.158-1.03-.431-1.66-.262-.642-.673-1.02a2.2 2.2 0 0 0-.851-.525 3 3 0 0 0-.988-.148q-.588 0-1.051.148a2.3 2.3 0 0 0-.873.525q-.42.378-.704 1.02-.273.63-.441 1.66a16 16 0 0 0-.158 2.418q0 1.377.158 2.407.168 1.03.441 1.66.284.63.704 1.02.421.378.873.526a3.7 3.7 0 0 0 1.051.136m14.736-5.77q2.133 0 3.437.788 1.314.789 1.314 2.092 0 1.429-1.556 2.249-1.545.81-4.152.81h-5.717v-.169l1.219-.158V26.878l-1.219-.148v-.168h5.507q2.639 0 3.963.81 1.335.798 1.335 2.196 0 1.293-1.136 2.081-1.134.789-2.995.789zm-1.167-5.602h-1.051v5.402h1.503q1.293 0 1.293-2.712 0-2.69-1.745-2.69m.21 11.214q1.052 0 1.598-.578.557-.588.557-2.154 0-.83-.137-1.388-.136-.557-.409-.84a1.5 1.5 0 0 0-.6-.41 2.2 2.2 0 0 0-.767-.116h-1.503v5.486zM144.87 26.73l-1.219.148v11.214l1.219.158v.168h-5.675v-.168l1.219-.158V26.878l-1.219-.148v-.168h5.675zm11.709 8.22h.2l-.126 3.468h-10.227v-.168l1.219-.158V26.878l-1.219-.148v-.168h5.676v.168l-1.219.148v11.214h2.28q1.409 0 2.302-.788.894-.799 1.093-2.197zm7.021-8.22-1.219.148v11.214l1.219.158v.168h-5.675v-.168l1.219-.158V26.878l-1.219-.148v-.168h5.675zm9.302-3.678-2.901 2.732h-.262l.862-2.932h2.301zm3.837 14.998 1.377.2v.168h-5.97v-.168l1.166-.2-1.377-3.373h-5.034l-.41 1.03q-.2.514-.2.946 0 .661.494 1.135.506.462 1.356.462v.168h-4.278v-.168l1.314-.2 4.562-11.488h2.323zm-9.712-3.7h4.782l-2.354-5.749h-.168zm23.796 1.935h.189v.241q0 .925-.683 1.482-.672.557-1.986.557-1.178 0-1.892-.64-.715-.642-.715-1.682V34.54q0-.705-.452-1.146t-1.24-.441h-1.293v5.14l1.219.157v.168h-5.676v-.168l1.22-.158V26.878l-1.22-.148v-.168h5.855q2.627 0 3.857.894 1.24.882 1.241 2.291 0 1.325-1.02 2.165t-3.153.841v.074q1.944.01 2.901.756.966.747.967 2.04v.903q0 1.114.799 1.114.472 0 .735-.304.273-.315.326-.81zm-8.072-3.658h1.398q.368 0 .62-.116.263-.115.483-.41.221-.304.326-.893.116-.589.116-1.461 0-.884-.116-1.471-.115-.59-.347-.883-.22-.295-.473-.4a1.45 1.45 0 0 0-.609-.115h-1.398zm14.757-5.897-1.219.148v11.214l1.219.158v.168h-5.676v-.168l1.219-.158V26.878l-1.219-.148v-.168h5.676zm13.138 11.32 1.377.2v.168h-5.97v-.168l1.167-.2-1.377-3.373h-5.035l-.41 1.03a2.6 2.6 0 0 0-.199.946q0 .661.494 1.135.504.462 1.356.462v.168h-4.278v-.168l1.314-.2 4.561-11.488h2.323zm-9.712-3.7h4.783l-2.355-5.749h-.168zM92.516 54.912q-.736 0-1.294-.341a2.3 2.3 0 0 1-.868-.961q-.31-.628-.31-1.48 0-.628.186-1.14.193-.51.527-.875.34-.365.798-.558a2.45 2.45 0 0 1 1-.202q.317 0 .58.047.272.046.473.124.202.069.341.163l-.131.325a2 2 0 0 0-.535-.209 2.5 2.5 0 0 0-.705-.093q-.636 0-1.116.31t-.744.86q-.264.543-.264 1.263 0 .73.256 1.271.255.535.72.837.474.302 1.109.302.41 0 .752-.077.349-.085.58-.202l.11.334a2.6 2.6 0 0 1-.605.209q-.38.093-.86.093m3.925-.023q-.519 0-.93-.256a1.77 1.77 0 0 1-.627-.729 2.5 2.5 0 0 1-.225-1.092q0-.62.225-1.085t.627-.729q.411-.263.938-.263t.93.263q.402.264.628.729.232.465.232 1.085t-.232 1.092q-.226.465-.628.729-.403.256-.938.256m0-.341q.434 0 .744-.21.318-.216.488-.604.18-.396.179-.922 0-.527-.179-.915a1.33 1.33 0 0 0-.488-.604 1.26 1.26 0 0 0-.744-.217q-.418 0-.736.217-.317.209-.488.604-.17.388-.17.915 0 .518.17.914t.488.612q.318.21.736.21m2.93.27v-3.835q.233-.078.597-.155.372-.078.876-.078.597 0 .93.225.341.225.472.636.14.41.14.984v2.224h-.372v-2.077q0-.581-.101-.945-.1-.364-.372-.535-.262-.17-.744-.17-.38 0-.674.054a2.3 2.3 0 0 0-.38.093v3.58zm4.337 0v-4.463q0-.79.348-1.17.35-.38 1.062-.38.248 0 .45.047.201.046.294.093l-.077.325a1.71 1.71 0 0 0-.659-.132q-.543 0-.798.287-.249.279-.248.946v.457h1.643v.333h-1.643v3.658zm2.851 0v-3.99h.365v3.99zm.179-5.06a.3.3 0 0 1-.217-.085.31.31 0 0 1-.086-.232q0-.14.086-.225a.3.3 0 0 1 .217-.085q.132 0 .217.085a.3.3 0 0 1 .085.225.32.32 0 0 1-.085.232.3.3 0 0 1-.217.085m2.795 5.123a2.4 2.4 0 0 1-.829-.132 1.06 1.06 0 0 1-.519-.403q-.178-.279-.178-.697 0-.411.194-.675.194-.27.558-.395.371-.132.891-.132.224 0 .48.047.256.039.395.085V52.3q0-.395-.1-.666a.74.74 0 0 0-.326-.419q-.232-.147-.659-.147-.301 0-.55.054a1.7 1.7 0 0 0-.387.124l-.054-.333q.178-.077.441-.124.264-.054.597-.054.504 0 .814.178t.449.504q.147.318.147.767v2.519a5 5 0 0 1-.612.124 5 5 0 0 1-.752.054m.055-.333q.248 0 .488-.024.248-.023.449-.077v-1.55a1.7 1.7 0 0 0-.364-.1 3 3 0 0 0-.504-.04 2.2 2.2 0 0 0-.666.093.9.9 0 0 0-.442.28q-.155.194-.155.51 0 .482.295.698.302.21.899.21m2.626.27v-3.835q.233-.078.596-.155.372-.078.876-.078.597 0 .93.225.34.225.473.636.14.41.139.984v2.224h-.372v-2.077q0-.581-.1-.945-.102-.364-.372-.535-.264-.17-.744-.17-.38 0-.675.054a2.3 2.3 0 0 0-.379.093v3.58zm5.599 1.45a1.5 1.5 0 0 1-.496-.085l.047-.264q.085.03.193.047.117.015.225.015.21 0 .31-.077a.23.23 0 0 0 .109-.21.3.3 0 0 0-.117-.248 1.5 1.5 0 0 0-.387-.178l.085-.201a3 3 0 0 1 .101-.21 1.8 1.8 0 0 1-.852-.302q-.35-.255-.535-.69a2.7 2.7 0 0 1-.178-1.022q0-.651.217-1.116.224-.472.627-.729a1.8 1.8 0 0 1 .961-.255q.325 0 .574.054.255.046.426.132l-.101.325a1.7 1.7 0 0 0-.38-.124 2.4 2.4 0 0 0-.503-.046q-.69 0-1.062.457-.372.458-.372 1.302 0 .534.163.914t.496.581q.333.202.837.202.248 0 .503-.07.264-.07.411-.155l.078.326a1.6 1.6 0 0 1-.442.162 2.7 2.7 0 0 1-.589.078l-.047.108-.046.109a.9.9 0 0 1 .349.24.54.54 0 0 1 .124.356.53.53 0 0 1-.318.496.96.96 0 0 1-.411.078m3.488-1.387q-.48 0-.829-.132a1.06 1.06 0 0 1-.519-.403q-.178-.279-.178-.697 0-.411.193-.675.194-.27.558-.395.372-.132.891-.132.225 0 .481.047.255.039.395.085V52.3q0-.395-.101-.666a.74.74 0 0 0-.325-.419q-.233-.147-.659-.147-.302 0-.55.054a1.7 1.7 0 0 0-.387.124l-.055-.333q.178-.077.442-.124.264-.054.597-.054.504 0 .813.178.31.178.45.504.147.318.147.767v2.519a5 5 0 0 1-.612.124 5 5 0 0 1-.752.054m.054-.333q.248 0 .489-.024.248-.023.449-.077v-1.55a1.7 1.7 0 0 0-.364-.1 3 3 0 0 0-.504-.04 2.2 2.2 0 0 0-.666.093.9.9 0 0 0-.442.28q-.155.194-.155.51 0 .482.295.698.302.21.898.21m4.375 1.704v-5.277q.178-.07.395-.116.218-.047.465-.078.256-.03.535-.03.58 0 1.015.255.433.248.666.713.24.458.24 1.1 0 .628-.217 1.093-.216.465-.62.72-.402.257-.953.257-.34 0-.651-.101a1.7 1.7 0 0 1-.503-.264v1.728zm1.495-1.704q.357 0 .62-.117.272-.123.45-.348.186-.233.271-.55.093-.318.093-.714 0-.588-.209-.968a1.3 1.3 0 0 0-.566-.574 1.8 1.8 0 0 0-.829-.186 3.5 3.5 0 0 0-.953.132v2.945q.178.155.48.271.31.109.643.109m4.187.333q-.481 0-.83-.132a1.06 1.06 0 0 1-.519-.403q-.178-.279-.178-.697 0-.411.194-.675.194-.27.558-.395.372-.132.891-.132.225 0 .48.047.256.039.396.085V52.3a1.9 1.9 0 0 0-.101-.666.74.74 0 0 0-.326-.419q-.232-.147-.658-.147-.302 0-.551.054a1.7 1.7 0 0 0-.387.124l-.054-.333q.178-.077.441-.124.264-.054.597-.054.504 0 .814.178t.449.504q.148.318.148.767v2.519q-.249.069-.613.124a5 5 0 0 1-.751.054m.054-.333q.248 0 .488-.024.248-.023.45-.077v-1.55a1.8 1.8 0 0 0-.365-.1 3 3 0 0 0-.503-.04q-.38 0-.667.093a.9.9 0 0 0-.442.28q-.155.194-.155.51 0 .482.295.698.302.21.899.21m2.626.27V51.03a2.9 2.9 0 0 1 1.271-.279 2.7 2.7 0 0 1 .542.055q.117.023.194.054l-.07.318a2 2 0 0 0-.286-.055 2.6 2.6 0 0 0-.419-.03q-.256 0-.48.046-.225.046-.38.116v3.565zm4.04.063q-.481 0-.829-.132a1.05 1.05 0 0 1-.52-.403q-.178-.279-.178-.697 0-.411.194-.675.194-.27.558-.395.372-.132.891-.132.225 0 .48.047.257.039.396.085V52.3a1.9 1.9 0 0 0-.101-.666.74.74 0 0 0-.326-.419q-.232-.147-.658-.147a2.6 2.6 0 0 0-.55.054 1.7 1.7 0 0 0-.388.124l-.054-.333q.178-.077.442-.124a3 3 0 0 1 .596-.054q.504 0 .814.178t.449.504q.148.318.148.767v2.519q-.249.069-.613.124a5 5 0 0 1-.751.054m.054-.333q.248 0 .488-.024.248-.023.45-.077v-1.55a1.7 1.7 0 0 0-.365-.1 3 3 0 0 0-.503-.04q-.38 0-.667.093a.9.9 0 0 0-.441.28q-.156.194-.155.51 0 .482.294.698.302.21.899.21m4.374.27v-3.835q.218-.078.558-.155.35-.078.829-.078.418 0 .69.124a.96.96 0 0 1 .434.341q.132-.116.325-.217a2 2 0 0 1 .442-.178q.256-.07.55-.07.528 0 .83.186.309.186.441.558.132.371.132.938v2.387h-.372v-2.24q0-.51-.085-.837-.086-.332-.318-.488-.233-.162-.666-.163-.264 0-.473.062-.21.055-.372.148-.163.093-.287.201.078.186.109.419.03.232.031.503v2.395h-.364v-2.24q0-.519-.093-.844a.8.8 0 0 0-.318-.48q-.232-.165-.682-.164-.21 0-.411.024-.2.023-.349.062a1 1 0 0 0-.209.062v3.58zm8.104.07q-.519 0-.93-.255a1.77 1.77 0 0 1-.628-.729 2.5 2.5 0 0 1-.225-1.092q0-.62.225-1.085t.628-.729q.41-.263.937-.263t.93.263.628.729q.233.465.233 1.085t-.233 1.092q-.225.465-.628.729a1.7 1.7 0 0 1-.937.256m0-.34a1.3 1.3 0 0 0 .744-.21q.317-.216.488-.604.178-.396.178-.922 0-.527-.178-.915a1.34 1.34 0 0 0-.488-.604 1.27 1.27 0 0 0-.744-.217 1.27 1.27 0 0 0-.736.217q-.318.209-.489.604-.17.388-.17.915 0 .518.17.914.171.396.489.612.317.21.736.21m2.93.27V51.03a2.9 2.9 0 0 1 1.271-.279 2.7 2.7 0 0 1 .542.055q.117.023.194.054l-.07.318a2 2 0 0 0-.286-.055 2.6 2.6 0 0 0-.419-.03q-.256 0-.48.046-.225.046-.38.116v3.565zm4.04.063q-.481 0-.829-.132a1.05 1.05 0 0 1-.52-.403q-.178-.279-.178-.697 0-.411.194-.675.194-.27.558-.395.372-.132.891-.132.225 0 .48.047.256.039.396.085V52.3a1.9 1.9 0 0 0-.101-.666.74.74 0 0 0-.326-.419q-.232-.147-.658-.147a2.6 2.6 0 0 0-.55.054 1.7 1.7 0 0 0-.388.124l-.054-.333q.178-.077.442-.124a3 3 0 0 1 .596-.054q.504 0 .814.178t.449.504q.148.318.148.767v2.519q-.249.069-.613.124a5 5 0 0 1-.751.054m.054-.333q.248 0 .488-.024.248-.023.45-.077v-1.55a1.8 1.8 0 0 0-.365-.1 3 3 0 0 0-.503-.04q-.38 0-.667.093a.9.9 0 0 0-.441.28q-.156.194-.155.51 0 .482.294.698.303.21.899.21m2.626.27V51.03a2.9 2.9 0 0 1 1.271-.279 2.7 2.7 0 0 1 .542.055q.116.023.194.054l-.07.318a2 2 0 0 0-.286-.055 2.6 2.6 0 0 0-.419-.03q-.255 0-.48.046t-.38.116v3.565zm5.858.07q-.232 0-.481-.03a6 6 0 0 1-.457-.078 4 4 0 0 1-.364-.093v-5.804l.372-.078V51.1a1.7 1.7 0 0 1 .488-.24 2 2 0 0 1 .682-.116q.565 0 .961.263.395.255.604.72.21.465.21 1.07 0 .651-.233 1.124-.232.465-.682.72-.45.249-1.1.249m.007-.34q.528 0 .884-.21.364-.21.55-.596.186-.396.186-.946 0-.372-.093-.682a1.6 1.6 0 0 0-.263-.55 1.1 1.1 0 0 0-.434-.356 1.4 1.4 0 0 0-.62-.132q-.364 0-.675.124-.31.123-.472.263v2.976q.17.047.418.078.249.03.519.03m4.861.333q-.675 0-1.108-.24a1.53 1.53 0 0 1-.636-.721q-.209-.472-.209-1.155 0-.573.209-1.03.217-.457.605-.729.395-.27.922-.271.512 0 .852.232.35.232.527.651a2.45 2.45 0 0 1 .171 1.116q0 .07-.008.132h-2.89q.022.845.403 1.263.387.42 1.177.419.31 0 .566-.07.264-.07.403-.147l.078.317a2 2 0 0 1-.442.163 2.7 2.7 0 0 1-.62.07m-1.558-2.325h2.519a2.2 2.2 0 0 0-.147-.814 1.08 1.08 0 0 0-.403-.503 1.1 1.1 0 0 0-.628-.17q-.419 0-.713.216-.287.21-.449.55a2 2 0 0 0-.179.721m4.06 2.263v-3.836q.217-.078.558-.155.349-.078.83-.078.417 0 .689.124a.96.96 0 0 1 .434.341q.131-.116.326-.217a2 2 0 0 1 .992-.248q.526 0 .829.186.31.186.441.558.132.371.132.938v2.387h-.372v-2.24q0-.51-.085-.837-.085-.332-.318-.488-.233-.162-.666-.163-.263 0-.473.062a1.5 1.5 0 0 0-.372.148 2 2 0 0 0-.287.201q.078.186.109.419t.031.503v2.395h-.364v-2.24q0-.519-.093-.844a.8.8 0 0 0-.318-.48q-.232-.165-.682-.164a4 4 0 0 0-.411.024q-.201.023-.348.062a1 1 0 0 0-.21.062v3.58zm6.771.07a.34.34 0 0 1-.248-.093.37.37 0 0 1-.085-.248.34.34 0 0 1 .085-.24.32.32 0 0 1 .248-.101q.147 0 .24.1a.33.33 0 0 1 .093.24.34.34 0 0 1-.093.24.31.31 0 0 1-.24.102"/></svg>