<svg width="127" height="128" viewBox="0 0 127 128" fill="none" xmlns="http://www.w3.org/2000/svg">
<path d="M47.0259 25.3393L40.5681 27.9224V7.25751H31.9578V38.6853L62.955 25.7698L93.9523 38.6853V7.25751H85.5572V27.9224L78.8842 25.124V0.799744H100.41V48.8025L62.955 33.3038L25.5 49.0177V0.799744H47.0259V25.3393Z" fill="#4D2708"/>
<path d="M47.0259 59.3502L40.5681 62.1485V73.342H31.9578V58.2739L62.955 45.3583L94.1676 58.2739V73.342H85.5572V62.1485L78.8842 59.3502V79.7997H100.41V53.3229L62.955 37.8243L25.5 53.5382V79.7997H47.0259V59.3502Z" fill="#4D2708"/>
<path d="M64.1851 58.9196H70.2738V65.0084H64.1851V58.9196Z" fill="#4D2708"/>
<path d="M62.1555 58.9196H56.0668V65.0084H62.1555V58.9196Z" fill="#4D2708"/>
<path d="M62.1555 67.038H56.0668V73.1267H62.1555V67.038Z" fill="#4D2708"/>
<path d="M64.1851 73.1267H70.2738V67.038H64.1851V73.1267Z" fill="#4D2708"/>
<line x1="89.5" y1="89.2303" x2="36.1158" y2="89.2303" stroke="#4D2708" stroke-width="0.861035"/>
<path d="M7.66735 94.0202L6.37454 94.1779V107.474L7.66735 107.632V107.8H1.85494V107.632L3.14776 107.474V94.1779L1.85494 94.0202V93.8521H7.66735V94.0202ZM24.9049 96.1119L23.6751 96.259V107.474L24.9049 107.632V107.8H19.2186V107.632L20.4483 107.474V96.9948H20.4063L16.0128 107.884H15.6029L10.8626 96.9948H10.8206V106.055C10.8206 106.412 10.9677 106.766 11.262 107.117C11.5633 107.46 11.9137 107.632 12.3131 107.632V107.8H8.97068V107.632C9.37008 107.632 9.71694 107.46 10.0112 107.117C10.3055 106.766 10.4527 106.412 10.4527 106.055V96.259L9.23345 96.1119V95.9437H13.6164L17.1059 103.921H17.2111L20.4483 95.9437H24.9049V96.1119ZM32.8299 95.786C33.6638 95.786 34.4416 95.8946 35.1633 96.1119C35.885 96.3291 36.5087 96.6304 37.0342 97.0158C37.5597 97.3942 38.0082 97.8391 38.3796 98.3506C38.758 98.8622 39.0382 99.4192 39.2204 100.022C39.4096 100.617 39.5042 101.238 39.5042 101.882C39.5042 102.688 39.3536 103.455 39.0523 104.184C38.758 104.906 38.334 105.547 37.7805 106.108C37.2339 106.668 36.5297 107.117 35.6678 107.453C34.813 107.782 33.867 107.947 32.8299 107.947C31.7719 107.947 30.8084 107.782 29.9395 107.453C29.0706 107.117 28.3559 106.668 27.7953 106.108C27.2418 105.547 26.8108 104.906 26.5025 104.184C26.2012 103.455 26.0505 102.688 26.0505 101.882C26.0505 101.076 26.2012 100.309 26.5025 99.5804C26.8108 98.8446 27.2418 98.1965 27.7953 97.6359C28.3559 97.0683 29.0706 96.6199 29.9395 96.2905C30.8084 95.9542 31.7719 95.786 32.8299 95.786ZM32.8299 107.632C33.2994 107.632 33.7093 107.551 34.0597 107.39C34.41 107.229 34.7324 106.945 35.0267 106.538C35.321 106.132 35.5452 105.54 35.6994 104.762C35.8535 103.984 35.9306 103.024 35.9306 101.882C35.9306 100.957 35.878 100.151 35.7729 99.4648C35.6678 98.7781 35.5242 98.2245 35.342 97.8041C35.1668 97.3766 34.9426 97.0368 34.6693 96.7845C34.396 96.5253 34.1122 96.3501 33.8179 96.259C33.5306 96.1609 33.2013 96.1119 32.8299 96.1119C32.4375 96.1119 32.0872 96.1609 31.7789 96.259C31.4776 96.3501 31.1868 96.5253 30.9065 96.7845C30.6262 97.0368 30.3915 97.3766 30.2023 97.8041C30.0201 98.2245 29.8729 98.7781 29.7608 99.4648C29.6557 100.151 29.6032 100.957 29.6032 101.882C29.6032 102.8 29.6557 103.602 29.7608 104.289C29.8729 104.976 30.0201 105.529 30.2023 105.95C30.3915 106.37 30.6262 106.71 30.9065 106.969C31.1868 107.222 31.4776 107.397 31.7789 107.495C32.0872 107.586 32.4375 107.632 32.8299 107.632ZM47.5659 101.861C48.9884 101.861 50.134 102.124 51.0029 102.65C51.8788 103.175 52.3167 103.872 52.3167 104.741C52.3167 105.694 51.7982 106.444 50.7612 106.99C49.7311 107.53 48.3472 107.8 46.6094 107.8H40.8916V107.632L42.1109 107.474V96.259L40.8916 96.1119V95.9437H46.3992C48.158 95.9437 49.4789 96.2135 50.3618 96.753C51.2517 97.2856 51.6966 98.0178 51.6966 98.9497C51.6966 99.8116 51.3182 100.505 50.5615 101.031C49.8047 101.556 48.8062 101.819 47.5659 101.819V101.861ZM46.3992 96.259H45.3482V101.662H46.8512C47.7131 101.662 48.144 100.758 48.144 98.9497C48.144 97.1559 47.5624 96.259 46.3992 96.259ZM46.6094 107.474C47.3102 107.474 47.8427 107.281 48.2071 106.896C48.5784 106.503 48.7641 105.785 48.7641 104.741C48.7641 104.188 48.7186 103.725 48.6275 103.354C48.5364 102.982 48.3998 102.702 48.2176 102.513C48.0354 102.317 47.8357 102.18 47.6185 102.103C47.4083 102.026 47.1525 101.987 46.8512 101.987H45.3482V107.474H46.6094ZM59.4115 96.1119L58.1922 96.259V107.474L59.4115 107.632V107.8H53.7357V107.632L54.9549 107.474V96.259L53.7357 96.1119V95.9437H59.4115V96.1119ZM71.1204 104.331H71.3201L71.1939 107.8H60.967V107.632L62.1863 107.474V96.259L60.967 96.1119V95.9437H66.6428V96.1119L65.4236 96.259V107.474H67.7044C68.6433 107.474 69.4106 107.211 70.0062 106.686C70.6018 106.153 70.9662 105.421 71.0993 104.489L71.1204 104.331ZM78.1415 96.1119L76.9223 96.259V107.474L78.1415 107.632V107.8H72.4657V107.632L73.685 107.474V96.259L72.4657 96.1119V95.9437H78.1415V96.1119ZM87.4435 92.4331L84.5425 95.1659H84.2797L85.1416 92.2334H87.4435V92.4331ZM91.2799 107.432L92.6568 107.632V107.8H86.6867V107.632L87.8534 107.432L86.4765 104.058H81.4419L81.0319 105.088C80.8988 105.431 80.8322 105.747 80.8322 106.034C80.8322 106.475 80.9969 106.854 81.3262 107.169C81.6626 107.477 82.1145 107.632 82.6821 107.632V107.8H78.4043V107.632L79.7181 107.432L84.2797 95.9437H86.6026L91.2799 107.432ZM81.568 103.732H86.3504L83.996 97.9828H83.8278L81.568 103.732ZM105.364 105.666H105.553V105.908C105.553 106.524 105.326 107.018 104.87 107.39C104.422 107.761 103.76 107.947 102.884 107.947C102.099 107.947 101.468 107.733 100.992 107.306C100.515 106.878 100.277 106.318 100.277 105.624V103.921C100.277 103.452 100.126 103.07 99.825 102.776C99.5237 102.481 99.1103 102.334 98.5848 102.334H97.292V107.474L98.5112 107.632V107.8H92.8354V107.632L94.0547 107.474V96.259L92.8354 96.1119V95.9437H98.6899C100.442 95.9437 101.727 96.2415 102.547 96.8371C103.374 97.4257 103.788 98.1895 103.788 99.1284C103.788 100.011 103.448 100.733 102.768 101.294C102.088 101.854 101.037 102.134 99.6148 102.134V102.208C100.911 102.215 101.878 102.467 102.516 102.965C103.16 103.462 103.483 104.142 103.483 105.004V105.908C103.483 106.651 103.749 107.022 104.282 107.022C104.597 107.022 104.842 106.92 105.017 106.717C105.2 106.507 105.308 106.237 105.343 105.908L105.364 105.666ZM97.292 102.008H98.6899C98.9351 102.008 99.1418 101.97 99.31 101.893C99.4852 101.816 99.6464 101.679 99.7935 101.483C99.9407 101.28 100.049 100.982 100.119 100.589C100.196 100.197 100.235 99.71 100.235 99.1284C100.235 98.5398 100.196 98.0493 100.119 97.6569C100.042 97.2645 99.9266 96.9702 99.7725 96.774C99.6253 96.5778 99.4677 96.4447 99.2995 96.3746C99.1313 96.2975 98.9281 96.259 98.6899 96.259H97.292V102.008ZM112.049 96.1119L110.83 96.259V107.474L112.049 107.632V107.8H106.373V107.632L107.592 107.474V96.259L106.373 96.1119V95.9437H112.049V96.1119ZM125.187 107.432L126.564 107.632V107.8H120.594V107.632L121.761 107.432L120.384 104.058H115.349L114.939 105.088C114.806 105.431 114.74 105.747 114.74 106.034C114.74 106.475 114.904 106.854 115.234 107.169C115.57 107.477 116.022 107.632 116.59 107.632V107.8H112.312V107.632L113.626 107.432L118.187 95.9437H120.51L125.187 107.432ZM115.475 103.732H120.258L117.903 97.9828H117.735L115.475 103.732Z" fill="#4D2708"/>
<path d="M20.638 124.293C20.1472 124.293 19.7159 124.18 19.3439 123.952C18.9719 123.725 18.6826 123.405 18.476 122.991C18.2693 122.573 18.166 122.08 18.166 121.511C18.166 121.093 18.228 120.713 18.352 120.372C18.4811 120.031 18.6568 119.739 18.8789 119.496C19.1063 119.254 19.3723 119.068 19.6771 118.938C19.9819 118.804 20.3151 118.737 20.6768 118.737C20.8886 118.737 21.0823 118.753 21.258 118.784C21.4388 118.815 21.5964 118.856 21.7307 118.908C21.865 118.954 21.9787 119.008 22.0717 119.07L21.9399 119.396C21.8004 119.313 21.6222 119.243 21.4052 119.186C21.1934 119.124 20.9583 119.093 20.7 119.093C20.2764 119.093 19.9044 119.197 19.5841 119.403C19.2638 119.61 19.0158 119.897 18.8402 120.264C18.6645 120.625 18.5767 121.046 18.5767 121.527C18.5767 122.012 18.662 122.436 18.8324 122.798C19.0029 123.154 19.2432 123.433 19.5531 123.635C19.8683 123.836 20.2377 123.937 20.6613 123.937C20.9351 123.937 21.1857 123.911 21.413 123.859C21.6454 123.802 21.8392 123.735 21.9942 123.658L22.1027 123.991C21.958 124.069 21.7565 124.138 21.4982 124.2C21.2451 124.262 20.9583 124.293 20.638 124.293ZM24.5636 124.27C24.2174 124.27 23.9074 124.185 23.6336 124.014C23.365 123.839 23.1558 123.596 23.0059 123.286C22.8561 122.971 22.7812 122.607 22.7812 122.193C22.7812 121.78 22.8561 121.418 23.0059 121.108C23.1558 120.798 23.365 120.556 23.6336 120.38C23.9074 120.204 24.22 120.116 24.5713 120.116C24.9226 120.116 25.2326 120.204 25.5012 120.38C25.7699 120.556 25.9791 120.798 26.1289 121.108C26.2839 121.418 26.3614 121.78 26.3614 122.193C26.3614 122.607 26.2839 122.971 26.1289 123.286C25.9791 123.596 25.7699 123.839 25.5012 124.014C25.2326 124.185 24.92 124.27 24.5636 124.27ZM24.5636 123.929C24.8529 123.929 25.1008 123.859 25.3075 123.72C25.5193 123.575 25.682 123.374 25.7957 123.115C25.9145 122.852 25.9739 122.545 25.9739 122.193C25.9739 121.842 25.9145 121.537 25.7957 121.279C25.682 121.015 25.5193 120.814 25.3075 120.674C25.1008 120.53 24.8529 120.457 24.5636 120.457C24.2846 120.457 24.0392 120.53 23.8274 120.674C23.6156 120.814 23.4528 121.015 23.3392 121.279C23.2255 121.537 23.1687 121.842 23.1687 122.193C23.1687 122.539 23.2255 122.844 23.3392 123.108C23.4528 123.371 23.6156 123.575 23.8274 123.72C24.0392 123.859 24.2846 123.929 24.5636 123.929ZM27.4938 124.2V120.364C27.6487 120.313 27.8476 120.261 28.0905 120.209C28.3384 120.158 28.6303 120.132 28.9661 120.132C29.3639 120.132 29.6739 120.207 29.896 120.357C30.1234 120.506 30.2809 120.718 30.3688 120.992C30.4618 121.266 30.5082 121.594 30.5082 121.976V124.2H30.1363V122.123C30.1363 121.736 30.1027 121.421 30.0355 121.178C29.9684 120.935 29.8444 120.757 29.6636 120.643C29.4879 120.53 29.2399 120.473 28.9196 120.473C28.6665 120.473 28.4418 120.491 28.2454 120.527C28.0543 120.563 27.9277 120.594 27.8657 120.62V124.2H27.4938ZM31.83 124.2V119.737C31.83 119.21 31.9463 118.82 32.1788 118.567C32.4112 118.313 32.7651 118.187 33.2404 118.187C33.4057 118.187 33.5556 118.202 33.6899 118.233C33.8242 118.264 33.9224 118.295 33.9844 118.326L33.9069 118.652C33.8294 118.616 33.7312 118.585 33.6124 118.559C33.4936 118.533 33.3722 118.52 33.2482 118.52C32.8865 118.52 32.6205 118.616 32.45 118.807C32.2847 118.993 32.202 119.308 32.202 119.752V120.209H33.8449V120.543H32.202V124.2H31.83ZM34.6818 124.2V120.209H35.046V124.2H34.6818ZM34.86 119.14C34.7774 119.14 34.705 119.112 34.6431 119.055C34.5862 118.998 34.5578 118.92 34.5578 118.822C34.5578 118.729 34.5862 118.654 34.6431 118.598C34.705 118.541 34.7774 118.512 34.86 118.512C34.9479 118.512 35.0202 118.541 35.077 118.598C35.1338 118.654 35.1623 118.729 35.1623 118.822C35.1623 118.92 35.1338 118.998 35.077 119.055C35.0202 119.112 34.9479 119.14 34.86 119.14ZM37.6558 124.262C37.3355 124.262 37.0591 124.218 36.8266 124.131C36.5993 124.043 36.4262 123.908 36.3074 123.728C36.1886 123.542 36.1292 123.309 36.1292 123.03C36.1292 122.756 36.1937 122.532 36.3229 122.356C36.4521 122.175 36.638 122.043 36.8808 121.961C37.1288 121.873 37.4259 121.829 37.772 121.829C37.9218 121.829 38.082 121.844 38.2525 121.875C38.423 121.901 38.5547 121.93 38.6477 121.961V121.682C38.6477 121.418 38.6141 121.196 38.547 121.015C38.485 120.829 38.3765 120.69 38.2215 120.597C38.0665 120.499 37.8469 120.45 37.5628 120.45C37.3613 120.45 37.1779 120.468 37.0126 120.504C36.8473 120.54 36.7181 120.581 36.6251 120.628L36.5709 120.295C36.6897 120.243 36.8369 120.202 37.0126 120.171C37.1882 120.134 37.3871 120.116 37.6093 120.116C37.9451 120.116 38.2163 120.176 38.423 120.295C38.6296 120.413 38.7794 120.581 38.8724 120.798C38.9706 121.01 39.0197 121.266 39.0197 121.566V124.084C38.8543 124.131 38.6503 124.172 38.4075 124.208C38.1647 124.244 37.9141 124.262 37.6558 124.262ZM37.71 123.929C37.8753 123.929 38.0381 123.921 38.1982 123.906C38.3636 123.89 38.5134 123.864 38.6477 123.828V122.278C38.5495 122.237 38.4281 122.204 38.2835 122.178C38.1388 122.152 37.9709 122.139 37.7798 122.139C37.5266 122.139 37.3045 122.17 37.1133 122.232C36.9273 122.289 36.7801 122.382 36.6716 122.511C36.5683 122.64 36.5166 122.811 36.5166 123.022C36.5166 123.343 36.6148 123.575 36.8111 123.72C37.0126 123.859 37.3122 123.929 37.71 123.929ZM40.3361 124.2V120.364C40.4911 120.313 40.69 120.261 40.9328 120.209C41.1808 120.158 41.4727 120.132 41.8085 120.132C42.2063 120.132 42.5163 120.207 42.7384 120.357C42.9657 120.506 43.1233 120.718 43.2111 120.992C43.3041 121.266 43.3506 121.594 43.3506 121.976V124.2H42.9787V122.123C42.9787 121.736 42.9451 121.421 42.8779 121.178C42.8108 120.935 42.6868 120.757 42.5059 120.643C42.3303 120.53 42.0823 120.473 41.762 120.473C41.5089 120.473 41.2841 120.491 41.0878 120.527C40.8967 120.563 40.7701 120.594 40.7081 120.62V124.2H40.3361ZM45.9356 125.649C45.8477 125.649 45.7599 125.642 45.6721 125.626C45.5843 125.611 45.5068 125.59 45.4396 125.564L45.4861 125.301C45.5429 125.321 45.6075 125.337 45.6798 125.347C45.7573 125.358 45.8322 125.363 45.9046 125.363C46.0441 125.363 46.1474 125.337 46.2145 125.285C46.2869 125.239 46.323 125.169 46.323 125.076C46.323 124.973 46.2843 124.89 46.2068 124.828C46.1293 124.771 46.0001 124.712 45.8193 124.65C45.8452 124.588 45.8736 124.521 45.9046 124.448C45.9356 124.376 45.9691 124.306 46.0053 124.239C45.6747 124.203 45.3905 124.102 45.1529 123.937C44.9204 123.766 44.7422 123.536 44.6182 123.247C44.4994 122.953 44.4399 122.612 44.4399 122.224C44.4399 121.79 44.5123 121.418 44.6569 121.108C44.8067 120.793 45.016 120.55 45.2846 120.38C45.5584 120.209 45.8787 120.124 46.2455 120.124C46.4625 120.124 46.6537 120.142 46.819 120.178C46.9895 120.209 47.1315 120.253 47.2452 120.31L47.1445 120.636C47.036 120.584 46.9094 120.543 46.7647 120.512C46.6201 120.481 46.4522 120.465 46.261 120.465C45.8012 120.465 45.4474 120.618 45.1994 120.922C44.9514 121.227 44.8274 121.661 44.8274 122.224C44.8274 122.581 44.8817 122.885 44.9901 123.139C45.0986 123.392 45.264 123.586 45.4861 123.72C45.7083 123.854 45.9872 123.921 46.323 123.921C46.4883 123.921 46.6563 123.898 46.8267 123.852C47.0024 123.805 47.1393 123.753 47.2375 123.697L47.3149 124.022C47.2116 124.084 47.0644 124.138 46.8732 124.185C46.6872 124.231 46.4909 124.257 46.2843 124.262C46.2688 124.298 46.2533 124.335 46.2378 124.371C46.2223 124.407 46.2068 124.443 46.1913 124.479C46.3463 124.546 46.4625 124.626 46.54 124.719C46.6227 124.818 46.664 124.936 46.664 125.076C46.664 125.184 46.6382 125.28 46.5865 125.363C46.5348 125.451 46.4548 125.52 46.3463 125.572C46.2378 125.624 46.1009 125.649 45.9356 125.649ZM49.4235 124.262C49.1032 124.262 48.8268 124.218 48.5944 124.131C48.3671 124.043 48.194 123.908 48.0752 123.728C47.9563 123.542 47.8969 123.309 47.8969 123.03C47.8969 122.756 47.9615 122.532 48.0907 122.356C48.2198 122.175 48.4058 122.043 48.6486 121.961C48.8966 121.873 49.1936 121.829 49.5398 121.829C49.6896 121.829 49.8498 121.844 50.0202 121.875C50.1907 121.901 50.3225 121.93 50.4155 121.961V121.682C50.4155 121.418 50.3819 121.196 50.3147 121.015C50.2527 120.829 50.1442 120.69 49.9892 120.597C49.8343 120.499 49.6147 120.45 49.3306 120.45C49.1291 120.45 48.9457 120.468 48.7803 120.504C48.615 120.54 48.4859 120.581 48.3929 120.628L48.3386 120.295C48.4575 120.243 48.6047 120.202 48.7803 120.171C48.956 120.134 49.1549 120.116 49.377 120.116C49.7129 120.116 49.9841 120.176 50.1907 120.295C50.3974 120.413 50.5472 120.581 50.6402 120.798C50.7383 121.01 50.7874 121.266 50.7874 121.566V124.084C50.6221 124.131 50.418 124.172 50.1752 124.208C49.9324 124.244 49.6819 124.262 49.4235 124.262ZM49.4778 123.929C49.6431 123.929 49.8058 123.921 49.966 123.906C50.1313 123.89 50.2811 123.864 50.4155 123.828V122.278C50.3173 122.237 50.1959 122.204 50.0512 122.178C49.9066 122.152 49.7387 122.139 49.5475 122.139C49.2944 122.139 49.0722 122.17 48.8811 122.232C48.6951 122.289 48.5479 122.382 48.4394 122.511C48.3361 122.64 48.2844 122.811 48.2844 123.022C48.2844 123.343 48.3826 123.575 48.5789 123.72C48.7803 123.859 49.08 123.929 49.4778 123.929ZM53.852 125.634V120.357C53.9709 120.31 54.1026 120.271 54.2473 120.24C54.3919 120.209 54.5469 120.184 54.7122 120.163C54.8827 120.142 55.0609 120.132 55.2469 120.132C55.6344 120.132 55.9728 120.217 56.2621 120.388C56.5514 120.553 56.7735 120.791 56.9285 121.101C57.0887 121.405 57.1687 121.772 57.1687 122.201C57.1687 122.619 57.0964 122.984 56.9518 123.294C56.8071 123.604 56.6005 123.844 56.3318 124.014C56.0632 124.185 55.7455 124.27 55.3787 124.27C55.1513 124.27 54.9344 124.236 54.7277 124.169C54.5211 124.097 54.3532 124.009 54.224 123.906V125.634H53.852ZM55.3477 123.929C55.5853 123.929 55.792 123.89 55.9676 123.813C56.1484 123.73 56.2982 123.614 56.4171 123.464C56.5411 123.309 56.6315 123.126 56.6883 122.914C56.7503 122.702 56.7813 122.464 56.7813 122.201C56.7813 121.808 56.7115 121.485 56.572 121.232C56.4377 120.974 56.2492 120.783 56.0063 120.659C55.7687 120.535 55.4923 120.473 55.1772 120.473C55.0015 120.473 54.8285 120.486 54.658 120.512C54.4926 120.537 54.348 120.568 54.224 120.605V123.549C54.3428 123.653 54.503 123.743 54.7045 123.821C54.9111 123.893 55.1255 123.929 55.3477 123.929ZM59.534 124.262C59.2137 124.262 58.9373 124.218 58.7048 124.131C58.4775 124.043 58.3044 123.908 58.1856 123.728C58.0668 123.542 58.0074 123.309 58.0074 123.03C58.0074 122.756 58.0719 122.532 58.2011 122.356C58.3303 122.175 58.5162 122.043 58.759 121.961C59.007 121.873 59.3041 121.829 59.6502 121.829C59.8 121.829 59.9602 121.844 60.1307 121.875C60.3012 121.901 60.4329 121.93 60.5259 121.961V121.682C60.5259 121.418 60.4923 121.196 60.4252 121.015C60.3632 120.829 60.2547 120.69 60.0997 120.597C59.9447 120.499 59.7251 120.45 59.441 120.45C59.2395 120.45 59.0561 120.468 58.8908 120.504C58.7255 120.54 58.5963 120.581 58.5033 120.628L58.4491 120.295C58.5679 120.243 58.7151 120.202 58.8908 120.171C59.0664 120.134 59.2653 120.116 59.4875 120.116C59.8233 120.116 60.0945 120.176 60.3012 120.295C60.5078 120.413 60.6576 120.581 60.7506 120.798C60.8488 121.01 60.8979 121.266 60.8979 121.566V124.084C60.7325 124.131 60.5285 124.172 60.2857 124.208C60.0429 124.244 59.7923 124.262 59.534 124.262ZM59.5882 123.929C59.7535 123.929 59.9163 123.921 60.0764 123.906C60.2418 123.89 60.3916 123.864 60.5259 123.828V122.278C60.4277 122.237 60.3063 122.204 60.1617 122.178C60.017 122.152 59.8491 122.139 59.658 122.139C59.4048 122.139 59.1827 122.17 58.9915 122.232C58.8055 122.289 58.6583 122.382 58.5498 122.511C58.4465 122.64 58.3948 122.811 58.3948 123.022C58.3948 123.343 58.493 123.575 58.6893 123.72C58.8908 123.859 59.1904 123.929 59.5882 123.929ZM62.2143 124.2V120.411C62.3848 120.328 62.576 120.261 62.7878 120.209C63.0048 120.158 63.2372 120.132 63.4852 120.132C63.5886 120.132 63.6867 120.137 63.7797 120.147C63.8727 120.158 63.9554 120.171 64.0277 120.186C64.1052 120.202 64.1697 120.22 64.2214 120.24L64.1517 120.558C64.0845 120.537 63.9889 120.519 63.8649 120.504C63.741 120.483 63.6015 120.473 63.4465 120.473C63.276 120.473 63.1158 120.488 62.966 120.519C62.8162 120.55 62.6896 120.589 62.5863 120.636V124.2H62.2143ZM66.2541 124.262C65.9338 124.262 65.6574 124.218 65.4249 124.131C65.1976 124.043 65.0245 123.908 64.9057 123.728C64.7869 123.542 64.7275 123.309 64.7275 123.03C64.7275 122.756 64.7921 122.532 64.9212 122.356C65.0504 122.175 65.2364 122.043 65.4792 121.961C65.7271 121.873 66.0242 121.829 66.3703 121.829C66.5202 121.829 66.6803 121.844 66.8508 121.875C67.0213 121.901 67.153 121.93 67.246 121.961V121.682C67.246 121.418 67.2124 121.196 67.1453 121.015C67.0833 120.829 66.9748 120.69 66.8198 120.597C66.6648 120.499 66.4452 120.45 66.1611 120.45C65.9596 120.45 65.7762 120.468 65.6109 120.504C65.4456 120.54 65.3164 120.581 65.2234 120.628L65.1692 120.295C65.288 120.243 65.4353 120.202 65.6109 120.171C65.7866 120.134 65.9855 120.116 66.2076 120.116C66.5434 120.116 66.8146 120.176 67.0213 120.295C67.2279 120.413 67.3777 120.581 67.4707 120.798C67.5689 121.01 67.618 121.266 67.618 121.566V124.084C67.4527 124.131 67.2486 124.172 67.0058 124.208C66.763 124.244 66.5124 124.262 66.2541 124.262ZM66.3083 123.929C66.4737 123.929 66.6364 123.921 66.7965 123.906C66.9619 123.89 67.1117 123.864 67.246 123.828V122.278C67.1479 122.237 67.0264 122.204 66.8818 122.178C66.7371 122.152 66.5692 122.139 66.3781 122.139C66.1249 122.139 65.9028 122.17 65.7116 122.232C65.5257 122.289 65.3784 122.382 65.2699 122.511C65.1666 122.64 65.1149 122.811 65.1149 123.022C65.1149 123.343 65.2131 123.575 65.4094 123.72C65.6109 123.859 65.9105 123.929 66.3083 123.929ZM70.6826 124.2V120.364C70.8272 120.313 71.0132 120.261 71.2405 120.209C71.473 120.158 71.7494 120.132 72.0697 120.132C72.3487 120.132 72.5786 120.173 72.7594 120.256C72.9454 120.333 73.09 120.447 73.1934 120.597C73.2812 120.519 73.3897 120.447 73.5188 120.38C73.648 120.308 73.7952 120.248 73.9606 120.202C74.131 120.155 74.3144 120.132 74.5108 120.132C74.8621 120.132 75.1384 120.194 75.3399 120.318C75.5466 120.442 75.6938 120.628 75.7816 120.876C75.8695 121.124 75.9134 121.436 75.9134 121.813V124.2H75.5414V121.961C75.5414 121.62 75.513 121.341 75.4562 121.124C75.3993 120.902 75.2934 120.739 75.1384 120.636C74.9835 120.527 74.7613 120.473 74.472 120.473C74.2964 120.473 74.1388 120.494 73.9993 120.535C73.8598 120.571 73.7358 120.62 73.6273 120.682C73.5188 120.744 73.4233 120.811 73.3406 120.884C73.3923 121.008 73.4284 121.147 73.4491 121.302C73.4698 121.457 73.4801 121.625 73.4801 121.806V124.2H73.1159V121.961C73.1159 121.615 73.0849 121.333 73.0229 121.116C72.9661 120.899 72.8601 120.739 72.7052 120.636C72.5502 120.527 72.3229 120.473 72.0232 120.473C71.8837 120.473 71.7468 120.481 71.6125 120.496C71.4782 120.512 71.3619 120.532 71.2638 120.558C71.1656 120.579 71.0959 120.599 71.0546 120.62V124.2H70.6826ZM78.7861 124.27C78.4399 124.27 78.13 124.185 77.8562 124.014C77.5875 123.839 77.3783 123.596 77.2285 123.286C77.0786 122.971 77.0037 122.607 77.0037 122.193C77.0037 121.78 77.0786 121.418 77.2285 121.108C77.3783 120.798 77.5875 120.556 77.8562 120.38C78.13 120.204 78.4425 120.116 78.7938 120.116C79.1451 120.116 79.4551 120.204 79.7237 120.38C79.9924 120.556 80.2016 120.798 80.3514 121.108C80.5064 121.418 80.5839 121.78 80.5839 122.193C80.5839 122.607 80.5064 122.971 80.3514 123.286C80.2016 123.596 79.9924 123.839 79.7237 124.014C79.4551 124.185 79.1425 124.27 78.7861 124.27ZM78.7861 123.929C79.0754 123.929 79.3234 123.859 79.53 123.72C79.7418 123.575 79.9046 123.374 80.0182 123.115C80.137 122.852 80.1965 122.545 80.1965 122.193C80.1965 121.842 80.137 121.537 80.0182 121.279C79.9046 121.015 79.7418 120.814 79.53 120.674C79.3234 120.53 79.0754 120.457 78.7861 120.457C78.5071 120.457 78.2617 120.53 78.0499 120.674C77.8381 120.814 77.6753 121.015 77.5617 121.279C77.448 121.537 77.3912 121.842 77.3912 122.193C77.3912 122.539 77.448 122.844 77.5617 123.108C77.6753 123.371 77.8381 123.575 78.0499 123.72C78.2617 123.859 78.5071 123.929 78.7861 123.929ZM81.7163 124.2V120.411C81.8868 120.328 82.0779 120.261 82.2897 120.209C82.5067 120.158 82.7392 120.132 82.9872 120.132C83.0905 120.132 83.1887 120.137 83.2816 120.147C83.3746 120.158 83.4573 120.171 83.5296 120.186C83.6071 120.202 83.6717 120.22 83.7234 120.24L83.6536 120.558C83.5865 120.537 83.4909 120.519 83.3669 120.504C83.2429 120.483 83.1034 120.473 82.9484 120.473C82.7779 120.473 82.6178 120.488 82.468 120.519C82.3182 120.55 82.1916 120.589 82.0883 120.636V124.2H81.7163ZM85.756 124.262C85.4357 124.262 85.1593 124.218 84.9269 124.131C84.6996 124.043 84.5265 123.908 84.4077 123.728C84.2888 123.542 84.2294 123.309 84.2294 123.03C84.2294 122.756 84.294 122.532 84.4232 122.356C84.5523 122.175 84.7383 122.043 84.9811 121.961C85.2291 121.873 85.5261 121.829 85.8723 121.829C86.0221 121.829 86.1823 121.844 86.3527 121.875C86.5232 121.901 86.655 121.93 86.748 121.961V121.682C86.748 121.418 86.7144 121.196 86.6472 121.015C86.5852 120.829 86.4767 120.69 86.3217 120.597C86.1668 120.499 85.9472 120.45 85.6631 120.45C85.4616 120.45 85.2782 120.468 85.1129 120.504C84.9475 120.54 84.8184 120.581 84.7254 120.628L84.6711 120.295C84.79 120.243 84.9372 120.202 85.1129 120.171C85.2885 120.134 85.4874 120.116 85.7096 120.116C86.0454 120.116 86.3166 120.176 86.5232 120.295C86.7299 120.413 86.8797 120.581 86.9727 120.798C87.0708 121.01 87.1199 121.266 87.1199 121.566V124.084C86.9546 124.131 86.7505 124.172 86.5077 124.208C86.2649 124.244 86.0144 124.262 85.756 124.262ZM85.8103 123.929C85.9756 123.929 86.1383 123.921 86.2985 123.906C86.4638 123.89 86.6136 123.864 86.748 123.828V122.278C86.6498 122.237 86.5284 122.204 86.3837 122.178C86.2391 122.152 86.0712 122.139 85.88 122.139C85.6269 122.139 85.4047 122.17 85.2136 122.232C85.0276 122.289 84.8804 122.382 84.7719 122.511C84.6686 122.64 84.6169 122.811 84.6169 123.022C84.6169 123.343 84.7151 123.575 84.9114 123.72C85.1129 123.859 85.4125 123.929 85.8103 123.929ZM88.4364 124.2V120.411C88.6069 120.328 88.798 120.261 89.0098 120.209C89.2268 120.158 89.4593 120.132 89.7073 120.132C89.8106 120.132 89.9088 120.137 90.0018 120.147C90.0947 120.158 90.1774 120.171 90.2497 120.186C90.3272 120.202 90.3918 120.22 90.4435 120.24L90.3737 120.558C90.3066 120.537 90.211 120.519 90.087 120.504C89.963 120.483 89.8235 120.473 89.6685 120.473C89.4981 120.473 89.3379 120.488 89.1881 120.519C89.0383 120.55 88.9117 120.589 88.8084 120.636V124.2H88.4364ZM94.294 124.27C94.1391 124.27 93.9789 124.26 93.8136 124.239C93.6534 124.218 93.501 124.193 93.3564 124.162C93.2117 124.131 93.0903 124.1 92.9922 124.069V118.264L93.3641 118.187V120.481C93.4778 120.393 93.6405 120.313 93.8523 120.24C94.0641 120.163 94.2915 120.124 94.5343 120.124C94.9114 120.124 95.2317 120.212 95.4952 120.388C95.7587 120.558 95.9601 120.798 96.0996 121.108C96.2391 121.418 96.3089 121.775 96.3089 122.178C96.3089 122.612 96.2314 122.986 96.0764 123.301C95.9214 123.611 95.6941 123.852 95.3944 124.022C95.0948 124.187 94.728 124.27 94.294 124.27ZM94.3018 123.929C94.6531 123.929 94.9476 123.859 95.1852 123.72C95.428 123.58 95.6114 123.381 95.7354 123.123C95.8594 122.86 95.9214 122.545 95.9214 122.178C95.9214 121.93 95.8904 121.702 95.8284 121.496C95.7716 121.284 95.6837 121.101 95.5649 120.946C95.4513 120.791 95.3066 120.672 95.131 120.589C94.9553 120.501 94.7487 120.457 94.511 120.457C94.2682 120.457 94.0435 120.499 93.8368 120.581C93.6302 120.664 93.4726 120.752 93.3641 120.845V123.821C93.4778 123.852 93.6173 123.877 93.7826 123.898C93.9479 123.919 94.121 123.929 94.3018 123.929ZM99.1623 124.262C98.7128 124.262 98.3435 124.182 98.0541 124.022C97.77 123.857 97.5582 123.617 97.4187 123.301C97.2792 122.986 97.2095 122.601 97.2095 122.147C97.2095 121.764 97.2792 121.421 97.4187 121.116C97.5634 120.811 97.7648 120.568 98.0231 120.388C98.2866 120.207 98.594 120.116 98.9453 120.116C99.2863 120.116 99.5704 120.194 99.7977 120.349C100.03 120.504 100.206 120.721 100.325 121C100.444 121.279 100.503 121.602 100.503 121.968C100.503 122.015 100.5 122.064 100.495 122.116C100.495 122.162 100.493 122.206 100.487 122.247H97.5969C97.6124 122.811 97.7468 123.232 97.9999 123.511C98.2582 123.79 98.6508 123.929 99.1778 123.929C99.3844 123.929 99.573 123.906 99.7435 123.859C99.9191 123.813 100.053 123.764 100.146 123.712L100.224 124.03C100.126 124.087 99.9786 124.141 99.7822 124.193C99.5859 124.239 99.3793 124.262 99.1623 124.262ZM97.6047 121.937H100.123C100.118 121.617 100.069 121.346 99.976 121.124C99.883 120.902 99.7487 120.734 99.573 120.62C99.4025 120.506 99.1933 120.45 98.9453 120.45C98.6663 120.45 98.4287 120.522 98.2324 120.667C98.0412 120.806 97.8914 120.989 97.7829 121.217C97.6796 121.439 97.6202 121.679 97.6047 121.937ZM101.665 124.2V120.364C101.809 120.313 101.995 120.261 102.223 120.209C102.455 120.158 102.732 120.132 103.052 120.132C103.331 120.132 103.561 120.173 103.742 120.256C103.928 120.333 104.072 120.447 104.176 120.597C104.263 120.519 104.372 120.447 104.501 120.38C104.63 120.308 104.777 120.248 104.943 120.202C105.113 120.155 105.297 120.132 105.493 120.132C105.844 120.132 106.121 120.194 106.322 120.318C106.529 120.442 106.676 120.628 106.764 120.876C106.852 121.124 106.896 121.436 106.896 121.813V124.2H106.524V121.961C106.524 121.62 106.495 121.341 106.438 121.124C106.381 120.902 106.276 120.739 106.121 120.636C105.966 120.527 105.743 120.473 105.454 120.473C105.278 120.473 105.121 120.494 104.981 120.535C104.842 120.571 104.718 120.62 104.609 120.682C104.501 120.744 104.405 120.811 104.323 120.884C104.374 121.008 104.411 121.147 104.431 121.302C104.452 121.457 104.462 121.625 104.462 121.806V124.2H104.098V121.961C104.098 121.615 104.067 121.333 104.005 121.116C103.948 120.899 103.842 120.739 103.687 120.636C103.532 120.527 103.305 120.473 103.005 120.473C102.866 120.473 102.729 120.481 102.595 120.496C102.46 120.512 102.344 120.532 102.246 120.558C102.148 120.579 102.078 120.599 102.037 120.62V124.2H101.665ZM108.435 124.27C108.332 124.27 108.249 124.239 108.187 124.177C108.131 124.11 108.102 124.027 108.102 123.929C108.102 123.831 108.131 123.751 108.187 123.689C108.249 123.622 108.332 123.588 108.435 123.588C108.533 123.588 108.614 123.622 108.676 123.689C108.738 123.751 108.769 123.831 108.769 123.929C108.769 124.022 108.738 124.102 108.676 124.169C108.614 124.236 108.533 124.27 108.435 124.27Z" fill="#4D2708"/>
</svg>
