<svg xmlns="http://www.w3.org/2000/svg" width="127" height="128" fill="none"><path fill="#4D2708" d="m47.026 25.34-6.458 2.582V7.258h-8.61v31.427L62.955 25.77l30.997 12.915V7.258h-8.395v20.664l-6.673-2.798V.8h21.526v48.003l-37.455-15.5L25.5 49.019V.8h21.526z"/><path fill="#4D2708" d="m47.026 59.35-6.458 2.798v11.194h-8.61V58.274l30.997-12.916 31.213 12.916v15.068h-8.61V62.149l-6.674-2.799V79.8h21.526V53.323L62.955 37.824 25.5 53.538V79.8h21.526z"/><path fill="#4D2708" d="M64.185 58.92h6.089v6.088h-6.089zM62.156 58.92h-6.09v6.088h6.09zM62.156 67.038h-6.09v6.089h6.09zM64.185 73.127h6.089v-6.089h-6.089z"/><path stroke="#4D2708" stroke-width=".861" d="M89.5 89.23H36.116"/><path fill="#4D2708" d="m7.667 94.02-1.292.158v13.296l1.292.158v.168H1.855v-.168l1.293-.158V94.178l-1.293-.158v-.168h5.812zm17.238 2.092-1.23.147v11.215l1.23.158v.168h-5.686v-.168l1.23-.158v-10.48h-.043l-4.393 10.89h-.41l-4.74-10.89h-.042v9.061q0 .535.441 1.062.452.515 1.051.515v.168H8.971v-.168q.6 0 1.04-.515.442-.527.442-1.062v-9.796l-1.22-.147v-.168h4.383l3.49 7.977h.105l3.237-7.977h4.457zm7.925-.326q1.251 0 2.333.326 1.083.325 1.871.904.788.567 1.346 1.335.567.766.84 1.671.284.893.284 1.86 0 1.209-.452 2.302a5.9 5.9 0 0 1-1.271 1.924q-.82.84-2.113 1.345-1.282.494-2.838.494-1.587 0-2.89-.494-1.304-.505-2.145-1.345a6.2 6.2 0 0 1-1.293-1.924 6 6 0 0 1-.451-2.302q0-1.209.452-2.302a6.1 6.1 0 0 1 1.292-1.944q.841-.852 2.144-1.346 1.305-.504 2.89-.504m0 11.846q.705 0 1.23-.242.525-.241.967-.852.441-.609.672-1.776t.232-2.88q0-1.388-.158-2.417-.158-1.03-.431-1.66-.263-.642-.673-1.02a2.2 2.2 0 0 0-.851-.526 3 3 0 0 0-.988-.147q-.589 0-1.051.147a2.26 2.26 0 0 0-.872.525q-.42.38-.705 1.02-.274.63-.441 1.66a16 16 0 0 0-.158 2.418q0 1.377.158 2.407.169 1.03.441 1.661.285.63.704 1.019.42.38.873.526.463.137 1.05.137m14.736-5.771q2.133 0 3.437.789 1.314.787 1.314 2.091 0 1.43-1.556 2.249-1.545.81-4.152.81h-5.717v-.168l1.219-.158V96.259l-1.22-.147v-.168H46.4q2.639 0 3.963.809 1.335.8 1.335 2.197 0 1.293-1.136 2.081-1.134.788-2.995.788zm-1.167-5.602h-1.05v5.403h1.502q1.293 0 1.293-2.712 0-2.691-1.745-2.691m.21 11.215q1.052 0 1.598-.578.557-.59.557-2.155 0-.83-.137-1.387-.135-.558-.41-.841a1.5 1.5 0 0 0-.599-.41 2.2 2.2 0 0 0-.767-.116h-1.503v5.487zm12.802-11.362-1.219.147v11.215l1.22.158v.168h-5.676v-.168l1.219-.158V96.259l-1.22-.147v-.168h5.676zm11.71 8.219h.2l-.127 3.469H60.967v-.168l1.22-.158V96.259l-1.22-.147v-.168h5.676v.168l-1.22.147v11.215h2.281q1.41 0 2.302-.788.894-.8 1.093-2.197zm7.02-8.22-1.219.148v11.215l1.22.158v.168h-5.676v-.168l1.219-.158V96.259l-1.22-.147v-.168h5.676zm9.302-3.678-2.9 2.733h-.263l.862-2.933h2.302zm3.837 14.999 1.377.2v.168h-5.97v-.168l1.166-.2-1.376-3.374h-5.035l-.41 1.03q-.2.515-.2.946 0 .662.494 1.135.505.463 1.356.463v.168h-4.278v-.168l1.314-.2 4.562-11.488h2.323zm-9.712-3.7h4.782l-2.354-5.75h-.168zm23.796 1.934h.189v.242q0 .924-.683 1.482-.672.557-1.986.557-1.178 0-1.892-.641-.715-.641-.715-1.682v-1.703q0-.704-.452-1.145t-1.24-.442h-1.293v5.14l1.22.158v.168h-5.677v-.168l1.22-.158V96.259l-1.22-.147v-.168h5.855q2.627 0 3.857.893 1.24.883 1.241 2.291 0 1.325-1.02 2.166-1.02.84-3.153.84v.074q1.944.01 2.901.757.966.746.967 2.039v.904q0 1.114.799 1.114.473 0 .735-.305.274-.315.326-.809zm-8.072-3.658h1.398q.368 0 .62-.115.262-.116.483-.41.221-.304.326-.894.116-.588.116-1.46 0-.885-.116-1.472-.115-.588-.347-.883-.22-.294-.473-.4a1.46 1.46 0 0 0-.61-.115h-1.397zm14.757-5.896-1.219.147v11.215l1.219.158v.168h-5.676v-.168l1.219-.158V96.259l-1.219-.147v-.168h5.676zm13.138 11.32 1.377.2v.168h-5.97v-.168l1.167-.2-1.377-3.374h-5.035l-.41 1.03a2.6 2.6 0 0 0-.199.946q0 .662.494 1.135.504.463 1.356.463v.168h-4.278v-.168l1.314-.2 4.561-11.488h2.323zm-9.712-3.7h4.783l-2.355-5.75h-.168zM20.638 124.293q-.735 0-1.294-.341a2.3 2.3 0 0 1-.868-.961q-.31-.627-.31-1.48 0-.627.186-1.139.194-.511.527-.876.34-.363.798-.558a2.5 2.5 0 0 1 1-.201q.317 0 .581.047.27.046.473.124.201.069.34.162l-.131.326a2 2 0 0 0-.535-.21 2.5 2.5 0 0 0-.705-.093q-.636 0-1.116.31t-.744.861q-.263.541-.263 1.263 0 .728.255 1.271.256.534.721.837.473.302 1.108.302.411 0 .752-.078.348-.086.581-.201l.109.333a2.6 2.6 0 0 1-.605.209q-.38.093-.86.093m3.926-.023q-.52 0-.93-.256a1.76 1.76 0 0 1-.628-.728 2.5 2.5 0 0 1-.225-1.093q0-.62.225-1.085t.628-.728q.41-.264.937-.264t.93.264.628.728q.232.465.232 1.085t-.232 1.093q-.226.465-.628.728a1.7 1.7 0 0 1-.937.256m0-.341q.434 0 .744-.209.317-.217.488-.605a2.2 2.2 0 0 0 .178-.922q0-.527-.178-.914a1.33 1.33 0 0 0-.488-.605 1.27 1.27 0 0 0-.744-.217q-.42 0-.737.217-.317.21-.488.605-.17.387-.17.914 0 .519.17.915.171.395.488.612.318.209.737.209m2.93.271v-3.836q.233-.077.596-.155a4.4 4.4 0 0 1 .876-.077q.597 0 .93.225.34.224.473.635.14.411.14.984v2.224h-.373v-2.077q0-.58-.1-.945-.102-.364-.372-.535-.264-.17-.744-.17-.38 0-.675.054a2.3 2.3 0 0 0-.38.093v3.58zm4.336 0v-4.463q0-.79.349-1.17.348-.38 1.061-.38.249 0 .45.046t.294.093l-.077.326a1.699 1.699 0 0 0-.659-.132q-.543 0-.798.287-.248.279-.248.945v.457h1.643v.334h-1.643v3.657zm2.852 0v-3.991h.364v3.991zm.178-5.06a.3.3 0 0 1-.217-.085.32.32 0 0 1-.085-.233.3.3 0 0 1 .085-.224.3.3 0 0 1 .217-.086q.132 0 .217.086a.3.3 0 0 1 .085.224.32.32 0 0 1-.085.233.3.3 0 0 1-.217.085m2.796 5.122q-.48 0-.83-.131a1.06 1.06 0 0 1-.519-.403q-.178-.28-.178-.698 0-.41.194-.674a1.1 1.1 0 0 1 .558-.395q.372-.132.891-.132.225 0 .48.046.257.04.396.086v-.279q0-.396-.101-.667a.74.74 0 0 0-.325-.418q-.233-.147-.66-.147a2.6 2.6 0 0 0-.55.054 1.7 1.7 0 0 0-.387.124l-.054-.333q.178-.078.442-.124a3 3 0 0 1 .596-.055q.504 0 .814.179.31.177.45.503.147.318.147.768v2.518a5 5 0 0 1-.613.124 5 5 0 0 1-.751.054m.054-.333q.248 0 .488-.023.248-.024.45-.078v-1.55a1.8 1.8 0 0 0-.365-.1 3 3 0 0 0-.503-.039q-.38 0-.667.093a.9.9 0 0 0-.441.279q-.156.194-.155.511 0 .481.294.698.302.209.899.209m2.626.271v-3.836q.233-.077.597-.155.372-.077.876-.077.595 0 .93.225.34.224.472.635.14.411.14.984v2.224h-.372v-2.077q0-.58-.101-.945-.1-.364-.372-.535-.264-.17-.744-.17-.38 0-.674.054a2.3 2.3 0 0 0-.38.093v3.58zm5.6 1.449a1.5 1.5 0 0 1-.496-.085l.046-.263q.086.03.194.046.116.016.225.016.209 0 .31-.078a.23.23 0 0 0 .108-.209.3.3 0 0 0-.116-.248 1.5 1.5 0 0 0-.388-.178l.086-.202q.046-.108.1-.209a1.8 1.8 0 0 1-.852-.302 1.64 1.64 0 0 1-.535-.69 2.7 2.7 0 0 1-.178-1.023q0-.651.217-1.116.225-.473.628-.728.41-.256.96-.256.327 0 .574.054.256.047.426.132l-.1.326a1.7 1.7 0 0 0-.38-.124 2.4 2.4 0 0 0-.504-.047q-.69 0-1.062.457-.372.458-.372 1.302 0 .535.163.915t.496.581.837.201q.247 0 .504-.069.263-.07.41-.155l.078.325q-.154.093-.442.163a2.7 2.7 0 0 1-.589.077l-.046.109-.047.108a.9.9 0 0 1 .349.24.54.54 0 0 1 .124.357.53.53 0 0 1-.318.496.95.95 0 0 1-.41.077m3.487-1.387q-.48 0-.829-.131a1.06 1.06 0 0 1-.519-.403q-.178-.28-.178-.698 0-.41.194-.674a1.1 1.1 0 0 1 .558-.395q.372-.132.89-.132.225 0 .481.046.255.04.395.086v-.279q0-.396-.1-.667a.74.74 0 0 0-.326-.418q-.232-.147-.658-.147-.303 0-.55.054a1.7 1.7 0 0 0-.388.124l-.054-.333q.178-.078.441-.124.264-.055.597-.055.504 0 .814.179.309.177.45.503.146.318.146.768v2.518q-.247.07-.612.124a5 5 0 0 1-.751.054m.055-.333q.248 0 .488-.023.247-.024.45-.078v-1.55a1.8 1.8 0 0 0-.365-.1 3 3 0 0 0-.504-.039q-.38 0-.666.093a.9.9 0 0 0-.442.279q-.155.194-.155.511 0 .481.295.698.302.209.899.209m4.374 1.705v-5.277a2.5 2.5 0 0 1 .395-.117q.218-.046.465-.077.256-.031.535-.031.581 0 1.015.256.434.248.666.713.24.456.24 1.1 0 .627-.216 1.093-.218.465-.62.72a1.74 1.74 0 0 1-.953.256q-.342 0-.651-.101a1.7 1.7 0 0 1-.504-.263v1.728zm1.496-1.705q.356 0 .62-.116.27-.124.45-.349.185-.232.27-.55a2.5 2.5 0 0 0 .093-.713q0-.59-.209-.969a1.3 1.3 0 0 0-.566-.573 1.8 1.8 0 0 0-.829-.186 3.4 3.4 0 0 0-.953.132v2.944q.179.155.48.272.31.108.644.108m4.186.333q-.48 0-.83-.131a1.06 1.06 0 0 1-.518-.403q-.18-.28-.179-.698 0-.41.194-.674a1.1 1.1 0 0 1 .558-.395q.372-.132.891-.132.225 0 .48.046.257.04.396.086v-.279q0-.396-.1-.667a.74.74 0 0 0-.326-.418q-.233-.147-.659-.147a2.6 2.6 0 0 0-.55.054 1.7 1.7 0 0 0-.388.124l-.054-.333q.178-.078.442-.124a3 3 0 0 1 .596-.055q.504 0 .814.179.31.177.45.503.147.318.147.768v2.518a5 5 0 0 1-.612.124 5 5 0 0 1-.752.054m.054-.333q.248 0 .488-.023.249-.024.45-.078v-1.55a1.8 1.8 0 0 0-.364-.1 3 3 0 0 0-.504-.039q-.38 0-.666.093a.9.9 0 0 0-.442.279q-.155.194-.155.511 0 .481.294.698.302.209.9.209m2.626.271v-3.789a2.9 2.9 0 0 1 1.271-.279 2.8 2.8 0 0 1 .543.054q.116.024.193.054l-.07.318a2 2 0 0 0-.286-.054 2.5 2.5 0 0 0-.419-.031q-.255 0-.48.046a1.8 1.8 0 0 0-.38.117v3.564zm4.04.062q-.48 0-.83-.131a1.06 1.06 0 0 1-.518-.403q-.179-.28-.178-.698 0-.41.193-.674a1.1 1.1 0 0 1 .558-.395q.372-.132.891-.132.225 0 .48.046.257.04.396.086v-.279q0-.396-.1-.667a.74.74 0 0 0-.326-.418q-.233-.147-.659-.147a2.6 2.6 0 0 0-.55.054 1.7 1.7 0 0 0-.388.124l-.054-.333q.178-.078.442-.124.263-.055.597-.055.503 0 .813.179.31.177.45.503.147.318.147.768v2.518q-.248.07-.612.124a5 5 0 0 1-.752.054m.054-.333q.249 0 .488-.023.249-.024.45-.078v-1.55a1.8 1.8 0 0 0-.364-.1 3 3 0 0 0-.504-.039q-.38 0-.666.093a.9.9 0 0 0-.442.279q-.155.194-.155.511 0 .481.294.698.302.209.9.209m4.375.271v-3.836q.216-.077.557-.155.35-.077.83-.077.418 0 .69.124.278.116.433.341.132-.117.326-.217a2 2 0 0 1 .992-.248q.526 0 .829.186.31.186.442.558.131.372.131.937v2.387h-.372v-2.239q0-.511-.085-.837-.085-.333-.318-.488-.232-.163-.666-.163-.264 0-.473.062-.21.054-.372.147a1.7 1.7 0 0 0-.286.202q.077.186.108.418.03.233.031.504v2.394h-.364v-2.239q0-.52-.093-.845a.8.8 0 0 0-.318-.48q-.232-.163-.682-.163-.21 0-.41.023-.202.024-.35.062a1 1 0 0 0-.208.062v3.58zm8.103.07q-.519 0-.93-.256a1.76 1.76 0 0 1-.627-.728 2.5 2.5 0 0 1-.225-1.093q0-.62.224-1.085.226-.465.628-.728.411-.264.938-.264t.93.264.627.728q.233.465.233 1.085t-.233 1.093q-.225.465-.627.728a1.7 1.7 0 0 1-.938.256m0-.341q.434 0 .744-.209.318-.217.488-.605a2.2 2.2 0 0 0 .178-.922q0-.527-.178-.914a1.33 1.33 0 0 0-.488-.605 1.27 1.27 0 0 0-.744-.217q-.418 0-.736.217-.318.21-.488.605-.17.387-.17.914 0 .519.17.915.17.395.488.612.318.209.736.209m2.93.271v-3.789a2.9 2.9 0 0 1 1.271-.279 2.8 2.8 0 0 1 .543.054q.116.024.193.054l-.07.318a2 2 0 0 0-.286-.054 2.5 2.5 0 0 0-.419-.031q-.255 0-.48.046a1.8 1.8 0 0 0-.38.117v3.564zm4.04.062q-.48 0-.83-.131a1.06 1.06 0 0 1-.518-.403q-.18-.28-.179-.698 0-.41.194-.674a1.1 1.1 0 0 1 .558-.395q.372-.132.891-.132.225 0 .48.046.256.04.396.086v-.279q0-.396-.1-.667a.74.74 0 0 0-.326-.418q-.233-.147-.659-.147a2.6 2.6 0 0 0-.55.054 1.7 1.7 0 0 0-.388.124l-.054-.333q.178-.078.442-.124a3 3 0 0 1 .597-.055q.503 0 .813.179.31.177.45.503.147.318.147.768v2.518q-.248.07-.612.124a5 5 0 0 1-.752.054m.054-.333q.248 0 .489-.023.248-.024.449-.078v-1.55a1.8 1.8 0 0 0-.364-.1 3 3 0 0 0-.504-.039q-.38 0-.666.093a.9.9 0 0 0-.442.279q-.155.194-.155.511 0 .481.294.698.302.209.9.209m2.626.271v-3.789a2.9 2.9 0 0 1 1.271-.279 2.8 2.8 0 0 1 .543.054q.116.024.194.054l-.07.318a2 2 0 0 0-.287-.054 2.5 2.5 0 0 0-.419-.031q-.255 0-.48.046a1.8 1.8 0 0 0-.38.117v3.564zm5.858.07a4 4 0 0 1-.48-.031 6 6 0 0 1-.458-.077 4 4 0 0 1-.364-.093v-5.805l.372-.077v2.294q.17-.132.488-.241.318-.116.682-.116.566 0 .961.264.396.255.605.72.21.465.209 1.07 0 .65-.233 1.123-.232.466-.682.721-.45.248-1.1.248m.008-.341q.527 0 .883-.209.364-.21.55-.597.186-.395.186-.945 0-.373-.093-.682a1.6 1.6 0 0 0-.263-.55 1.1 1.1 0 0 0-.434-.357 1.4 1.4 0 0 0-.62-.132q-.365 0-.674.124a1.7 1.7 0 0 0-.473.264v2.976q.17.046.419.077t.519.031m4.86.333q-.675 0-1.108-.24a1.5 1.5 0 0 1-.635-.721q-.21-.473-.21-1.154 0-.574.21-1.031.217-.458.604-.728.396-.272.922-.272.511 0 .853.233.348.233.527.651a2.45 2.45 0 0 1 .17 1.116q0 .07-.008.131h-2.89q.023.846.403 1.264.386.418 1.178.418.31 0 .566-.07.263-.069.402-.147l.078.318a2 2 0 0 1-.442.163 2.7 2.7 0 0 1-.62.069m-1.557-2.325h2.518a2.2 2.2 0 0 0-.147-.813 1.08 1.08 0 0 0-.403-.504q-.255-.17-.628-.17-.418 0-.713.217a1.4 1.4 0 0 0-.45.55 2 2 0 0 0-.177.72m4.06 2.263v-3.836q.216-.077.558-.155a4 4 0 0 1 .829-.077q.418 0 .69.124a.96.96 0 0 1 .434.341 1.6 1.6 0 0 1 .325-.217 2 2 0 0 1 .992-.248q.527 0 .829.186.31.186.442.558t.132.937v2.387h-.372v-2.239q0-.511-.086-.837-.085-.333-.317-.488-.233-.163-.667-.163-.264 0-.473.062a1.5 1.5 0 0 0-.372.147 1.7 1.7 0 0 0-.286.202q.077.186.108.418.031.233.031.504v2.394h-.364v-2.239q0-.52-.093-.845a.8.8 0 0 0-.318-.48q-.232-.163-.682-.163-.209 0-.41.023a3 3 0 0 0-.349.062 1 1 0 0 0-.209.062v3.58zm6.77.07a.34.34 0 0 1-.248-.093.38.38 0 0 1-.085-.248q0-.147.085-.24a.32.32 0 0 1 .248-.101q.147 0 .241.101a.33.33 0 0 1 .093.24.34.34 0 0 1-.093.24.32.32 0 0 1-.241.101"/></svg>