<svg xmlns="http://www.w3.org/2000/svg" width="213" height="79" fill="none"><path fill="#F2CDA7" d="m21.619 24.54-6.458 2.583V6.458H6.55v31.428L37.547 24.97l30.997 12.916V6.458H60.15v20.665l-6.673-2.799V0h21.526v48.003L37.548 32.504.093 48.218V0h21.526z"/><path fill="#F2CDA7" d="M21.619 58.55 15.16 61.35v11.193H6.55V57.474L37.547 44.56 68.76 57.474v15.068h-8.61V61.35l-6.673-2.799V79h21.526V52.523L37.548 37.025.093 52.738V79h21.526z"/><path fill="#F2CDA7" d="M38.778 58.12h6.089v6.089h-6.09zM36.748 58.12H30.66v6.089h6.09zM36.748 66.238H30.66v6.089h6.09zM38.778 72.327h6.089v-6.089h-6.09z"/><path stroke="#F2CDA7" stroke-width=".861" d="M81.03 12.808v53.384"/><path fill="#F2CDA7" d="m93.219 24.639-1.293.158v13.296l1.293.157v.169h-5.812v-.169l1.292-.157V24.797l-1.292-.158v-.168h5.812zm17.238 2.092-1.23.147v11.215l1.23.157v.169h-5.687v-.169l1.23-.157v-10.48h-.042l-4.394 10.89h-.409l-4.74-10.89h-.043v9.06q0 .537.442 1.062.45.515 1.05.515v.169h-3.342v-.169q.6 0 1.04-.515.442-.525.442-1.061v-9.796l-1.219-.147v-.169h4.383l3.49 7.978h.105L106 26.562h4.457zm7.925-.326q1.25 0 2.333.326 1.082.326 1.871.903.788.569 1.345 1.335.568.768.841 1.671.284.894.284 1.86 0 1.21-.452 2.303a5.9 5.9 0 0 1-1.272 1.923q-.82.841-2.113 1.346-1.281.494-2.837.494-1.588 0-2.891-.494-1.303-.505-2.144-1.346a6.1 6.1 0 0 1-1.293-1.923 6 6 0 0 1-.452-2.302q0-1.209.452-2.302a6.1 6.1 0 0 1 1.293-1.944q.841-.851 2.144-1.346 1.303-.504 2.891-.504m0 11.845q.704 0 1.229-.242.526-.24.967-.85.442-.611.673-1.777.231-1.167.231-2.88 0-1.387-.157-2.417-.158-1.03-.431-1.661-.264-.641-.673-1.02a2.2 2.2 0 0 0-.851-.525 3 3 0 0 0-.988-.147q-.59 0-1.051.147a2.25 2.25 0 0 0-.873.525q-.42.379-.704 1.02-.273.63-.442 1.66-.157 1.03-.157 2.418 0 1.377.157 2.407.17 1.03.442 1.66.284.63.704 1.02.42.378.873.526.462.136 1.051.136m14.736-5.77q2.133 0 3.437.788 1.313.789 1.313 2.092 0 1.43-1.555 2.25-1.545.809-4.152.809h-5.718v-.169l1.22-.157V26.878l-1.22-.147v-.169h5.508q2.638 0 3.962.81 1.335.799 1.335 2.197 0 1.292-1.135 2.08-1.135.789-2.995.789zm-1.167-5.602H130.9v5.402h1.503q1.293 0 1.293-2.712 0-2.69-1.745-2.69m.21 11.215q1.051 0 1.598-.579.557-.588.557-2.154 0-.83-.137-1.388-.137-.556-.41-.84a1.5 1.5 0 0 0-.599-.41 2.2 2.2 0 0 0-.767-.116H130.9v5.487zm12.802-11.362-1.219.147v11.215l1.219.157v.169h-5.676v-.169l1.22-.157V26.878l-1.22-.147v-.169h5.676zm11.709 8.219h.2l-.126 3.468h-10.227v-.168l1.219-.157V26.878l-1.219-.147v-.169h5.675v.169l-1.219.147v11.215h2.281q1.408 0 2.302-.789.893-.799 1.093-2.196zm7.021-8.22-1.219.148v11.215l1.219.157v.169h-5.676v-.169l1.22-.157V26.878l-1.22-.147v-.169h5.676zm9.302-3.678-2.901 2.733h-.263l.862-2.933h2.302zm3.836 14.999 1.377.2v.168h-5.97v-.169l1.167-.2-1.377-3.373h-5.035l-.409 1.03a2.6 2.6 0 0 0-.2.946q0 .662.494 1.135.504.462 1.356.462v.169h-4.278v-.169l1.314-.2 4.561-11.488h2.323zm-9.711-3.7h4.782l-2.354-5.75h-.169zm23.796 1.934h.189v.242q0 .924-.683 1.481-.673.558-1.987.558-1.177 0-1.892-.642-.714-.64-.714-1.681V34.54q0-.704-.452-1.146t-1.241-.441h-1.292v5.14l1.219.157v.169h-5.676v-.169l1.219-.157V26.878l-1.219-.147v-.169h5.855q2.627 0 3.857.894 1.24.882 1.24 2.291 0 1.325-1.019 2.165-1.02.84-3.154.841v.074q1.945.01 2.901.757.967.746.967 2.039v.904q0 1.113.799 1.114.474 0 .736-.305.273-.315.326-.81zm-8.072-3.658h1.398q.367 0 .62-.116.263-.115.483-.41.22-.304.326-.893.116-.589.116-1.46 0-.885-.116-1.472-.116-.59-.347-.883-.22-.295-.473-.4a1.45 1.45 0 0 0-.609-.115h-1.398zm14.757-5.896-1.22.147v11.215l1.22.157v.169h-5.676v-.169l1.219-.157V26.878l-1.219-.147v-.169h5.676zm13.138 11.32 1.377.2v.168h-5.97v-.169l1.166-.2-1.376-3.373h-5.035l-.41 1.03a2.6 2.6 0 0 0-.2.946q0 .662.494 1.135.506.462 1.356.462v.169h-4.278v-.169l1.314-.2 4.562-11.488h2.323zm-9.712-3.7h4.782l-2.354-5.75h-.168zM92.608 54.912q-.735 0-1.294-.341a2.3 2.3 0 0 1-.868-.961q-.31-.628-.31-1.48 0-.628.186-1.14.195-.51.527-.875.342-.365.798-.558a2.45 2.45 0 0 1 1-.201q.318 0 .581.046.272.046.473.124.201.07.341.163l-.132.325a2 2 0 0 0-.534-.209 2.5 2.5 0 0 0-.706-.093q-.635 0-1.115.31t-.745.86q-.263.543-.263 1.263 0 .73.256 1.271.255.535.72.837.474.302 1.109.302.41 0 .751-.077.35-.085.582-.202l.108.334a2.6 2.6 0 0 1-.604.209q-.38.093-.86.093m3.926-.023q-.519 0-.93-.256a1.77 1.77 0 0 1-.628-.729 2.5 2.5 0 0 1-.225-1.092q0-.62.225-1.085t.628-.729q.41-.263.938-.263.525 0 .93.263.402.264.627.729.233.465.233 1.085t-.233 1.092q-.225.465-.627.729-.404.255-.938.256m0-.341q.434 0 .744-.21.317-.216.488-.604.178-.395.178-.922t-.178-.915a1.33 1.33 0 0 0-.488-.604 1.26 1.26 0 0 0-.744-.217q-.42 0-.736.217-.318.209-.489.604-.17.389-.17.915 0 .518.17.914.171.396.489.612.318.21.736.21m2.93.27v-3.835a6 6 0 0 1 .597-.155q.372-.078.875-.078.597 0 .93.225.342.225.473.636.14.41.14.984v2.224h-.372v-2.077q0-.581-.101-.945-.1-.364-.372-.535-.264-.17-.744-.17-.38 0-.674.054a2.3 2.3 0 0 0-.38.093v3.58zm4.336 0v-4.463q0-.79.349-1.17t1.062-.38q.248 0 .449.047.202.046.295.093l-.078.325a1.718 1.718 0 0 0-.658-.132q-.543 0-.799.287-.248.279-.248.946v.457h1.643v.333h-1.643v3.658zm2.852 0v-3.99h.364v3.99zm.178-5.06a.3.3 0 0 1-.217-.085.32.32 0 0 1-.085-.232q0-.14.085-.225a.3.3 0 0 1 .217-.085.293.293 0 0 1 .303.31.31.31 0 0 1-.086.232.3.3 0 0 1-.217.085m2.796 5.123q-.48 0-.829-.132a1.06 1.06 0 0 1-.519-.403q-.179-.279-.179-.697 0-.411.194-.675.194-.27.558-.395.372-.13.891-.131.225 0 .481.046.255.039.395.085V52.3q0-.395-.101-.666a.74.74 0 0 0-.325-.419q-.233-.147-.659-.147-.302 0-.55.054a1.7 1.7 0 0 0-.388.124l-.054-.333q.178-.077.442-.124.263-.054.597-.054.503 0 .813.178t.45.504q.147.318.147.767v2.519a5 5 0 0 1-.612.124 5 5 0 0 1-.752.054m.054-.333q.248 0 .489-.024.248-.023.449-.077v-1.55a1.7 1.7 0 0 0-.364-.1 3 3 0 0 0-.504-.04 2.2 2.2 0 0 0-.666.093.9.9 0 0 0-.442.28q-.155.194-.155.511 0 .48.294.697.303.21.899.21m2.626.27v-3.835q.233-.078.597-.155.372-.078.876-.078.597 0 .93.225.341.225.472.636.14.41.14.984v2.224h-.372v-2.077q0-.581-.101-.945-.1-.364-.372-.535-.262-.17-.744-.17-.38 0-.674.054a2.3 2.3 0 0 0-.38.093v3.58zm5.6 1.45a1.5 1.5 0 0 1-.496-.085l.046-.264q.086.03.194.047.117.015.225.015.209 0 .31-.077a.23.23 0 0 0 .108-.21.3.3 0 0 0-.116-.248 1.5 1.5 0 0 0-.387-.178q.038-.093.085-.201.046-.108.101-.21a1.8 1.8 0 0 1-.853-.302q-.348-.255-.534-.69a2.7 2.7 0 0 1-.179-1.022q0-.651.217-1.116.225-.472.628-.729a1.8 1.8 0 0 1 .961-.255q.325 0 .573.054a1.6 1.6 0 0 1 .427.132l-.101.325a1.7 1.7 0 0 0-.38-.124 2.4 2.4 0 0 0-.504-.046q-.689 0-1.061.457-.372.458-.372 1.302 0 .534.162.914.163.38.496.581.335.202.837.202.249 0 .504-.07a1.7 1.7 0 0 0 .411-.155l.077.326q-.154.093-.441.162a2.7 2.7 0 0 1-.589.078l-.047.108-.046.109a.9.9 0 0 1 .348.24.53.53 0 0 1 .124.356.53.53 0 0 1-.317.496 1 1 0 0 1-.411.078m3.488-1.387q-.48 0-.829-.132a1.05 1.05 0 0 1-.52-.403q-.178-.279-.178-.697 0-.411.194-.675.194-.27.558-.395.372-.13.891-.131.225 0 .481.046.255.039.395.085V52.3q0-.395-.101-.666a.74.74 0 0 0-.325-.419q-.233-.147-.659-.147-.303 0-.55.054a1.7 1.7 0 0 0-.388.124l-.054-.333q.178-.077.442-.124a3 3 0 0 1 .596-.054q.504 0 .814.178t.45.504q.147.318.147.767v2.519q-.249.069-.612.124a5 5 0 0 1-.752.054m.054-.333q.248 0 .488-.024.248-.023.45-.077v-1.55a1.7 1.7 0 0 0-.364-.1 3 3 0 0 0-.504-.04 2.2 2.2 0 0 0-.667.093.9.9 0 0 0-.441.28q-.155.194-.155.511 0 .48.294.697.303.21.899.21m4.374 1.704v-5.277q.178-.07.396-.116.216-.047.465-.078.255-.03.534-.03.582 0 1.015.255.435.248.667.713.24.458.24 1.1 0 .628-.217 1.093t-.62.72a1.74 1.74 0 0 1-.953.257q-.34 0-.651-.101a1.7 1.7 0 0 1-.504-.264v1.728zm1.496-1.704q.357 0 .62-.117.272-.123.449-.348.186-.233.272-.55.093-.318.093-.714 0-.588-.21-.968a1.3 1.3 0 0 0-.565-.574 1.8 1.8 0 0 0-.829-.186 3.5 3.5 0 0 0-.954.132v2.945q.178.155.481.271.31.109.643.109m4.186.333a2.4 2.4 0 0 1-.829-.132 1.06 1.06 0 0 1-.519-.403q-.178-.279-.178-.697 0-.411.193-.675.195-.27.558-.395a2.7 2.7 0 0 1 .892-.131q.224 0 .48.046.255.039.395.085V52.3q0-.395-.101-.666a.74.74 0 0 0-.325-.419q-.233-.147-.659-.147-.302 0-.55.054a1.7 1.7 0 0 0-.387.124l-.055-.333q.178-.077.442-.124.264-.054.597-.054.504 0 .813.178.31.178.45.504.147.318.147.767v2.519a5 5 0 0 1-.612.124 5 5 0 0 1-.752.054m.055-.333q.248 0 .488-.024.248-.023.449-.077v-1.55a1.7 1.7 0 0 0-.364-.1 3 3 0 0 0-.504-.04 2.2 2.2 0 0 0-.666.093.9.9 0 0 0-.442.28q-.155.194-.155.511 0 .48.295.697.302.21.899.21m2.626.27V51.03a2.86 2.86 0 0 1 1.271-.279 2.7 2.7 0 0 1 .542.055q.116.023.194.054l-.07.318a2 2 0 0 0-.287-.055 2.6 2.6 0 0 0-.418-.03q-.256 0-.481.046t-.379.116v3.565zm4.039.063a2.4 2.4 0 0 1-.829-.132 1.06 1.06 0 0 1-.519-.403q-.178-.279-.178-.697 0-.411.194-.675.194-.27.557-.395.373-.13.892-.131.224 0 .48.046.256.039.395.085V52.3a1.9 1.9 0 0 0-.1-.666.74.74 0 0 0-.326-.419q-.232-.147-.659-.147a2.6 2.6 0 0 0-.55.054 1.7 1.7 0 0 0-.387.124l-.054-.333q.178-.077.441-.124.264-.054.597-.054.504 0 .814.178t.449.504q.147.318.147.767v2.519a5 5 0 0 1-.612.124 5 5 0 0 1-.752.054m.055-.333q.248 0 .488-.024.248-.023.449-.077v-1.55a1.7 1.7 0 0 0-.364-.1 3 3 0 0 0-.504-.04 2.2 2.2 0 0 0-.666.093.9.9 0 0 0-.442.28q-.155.194-.155.511 0 .48.295.697.302.21.899.21m4.374.27v-3.835q.218-.078.558-.155a4 4 0 0 1 .829-.078q.418 0 .69.124.279.117.434.341.132-.116.325-.217a2 2 0 0 1 .992-.247q.527 0 .829.185.31.186.442.558.132.371.132.938v2.387h-.372v-2.24q0-.51-.085-.837-.085-.333-.318-.488-.232-.162-.667-.163-.263 0-.472.062-.21.055-.372.148-.163.093-.287.201.078.186.108.419.031.232.031.503v2.395h-.364v-2.24q0-.519-.093-.844a.8.8 0 0 0-.318-.48q-.232-.165-.681-.164-.21 0-.411.024a3 3 0 0 0-.349.062 1 1 0 0 0-.209.062v3.58zm8.103.07q-.519 0-.93-.255a1.77 1.77 0 0 1-.627-.729 2.5 2.5 0 0 1-.225-1.092q0-.62.225-1.085t.627-.729q.411-.263.938-.263t.93.263.628.729q.232.465.232 1.085t-.232 1.092q-.225.465-.628.729-.403.255-.938.256m0-.34q.435 0 .744-.21.318-.216.489-.604.177-.395.178-.922 0-.527-.178-.915a1.34 1.34 0 0 0-.489-.604 1.26 1.26 0 0 0-.744-.217q-.418 0-.736.217-.317.209-.488.604-.17.389-.17.915 0 .518.17.914t.488.612q.318.21.736.21m2.931.27V51.03a2.86 2.86 0 0 1 1.271-.279 2.7 2.7 0 0 1 .542.055q.116.023.194.054l-.07.318a2 2 0 0 0-.287-.055 2.6 2.6 0 0 0-.418-.03q-.256 0-.481.046t-.379.116v3.565zm4.039.063a2.4 2.4 0 0 1-.829-.132 1.06 1.06 0 0 1-.519-.403q-.178-.279-.178-.697 0-.411.193-.675.195-.27.558-.395a2.7 2.7 0 0 1 .892-.131q.224 0 .48.046.256.039.395.085V52.3a1.9 1.9 0 0 0-.1-.666.74.74 0 0 0-.326-.419q-.232-.147-.659-.147a2.6 2.6 0 0 0-.55.054 1.7 1.7 0 0 0-.387.124l-.055-.333q.179-.077.442-.124.264-.054.597-.054.504 0 .814.178t.449.504q.147.318.147.767v2.519a5 5 0 0 1-.612.124 5 5 0 0 1-.752.054m.055-.333q.248 0 .488-.024.248-.023.449-.077v-1.55a1.7 1.7 0 0 0-.364-.1 3 3 0 0 0-.504-.04 2.2 2.2 0 0 0-.666.093.9.9 0 0 0-.442.28q-.155.194-.155.511 0 .48.295.697.302.21.899.21m2.626.27V51.03a2.86 2.86 0 0 1 1.271-.279 2.7 2.7 0 0 1 .542.055q.117.023.194.054l-.07.318a2 2 0 0 0-.287-.055 2.6 2.6 0 0 0-.418-.03q-.256 0-.481.046t-.379.116v3.565zm5.857.07q-.233 0-.48-.03a5.6 5.6 0 0 1-.822-.17v-5.805l.372-.078V51.1q.171-.132.489-.24.317-.117.682-.116.565 0 .961.263.394.255.604.72t.209 1.07q0 .651-.232 1.124-.233.465-.682.72-.45.249-1.101.249m.008-.34q.527 0 .884-.21.363-.21.55-.596.186-.396.186-.946 0-.372-.093-.682a1.6 1.6 0 0 0-.264-.55 1.1 1.1 0 0 0-.434-.356 1.4 1.4 0 0 0-.62-.132q-.363 0-.674.124-.31.124-.473.263v2.976q.171.047.419.078.247.03.519.03m4.861.333q-.674 0-1.109-.24a1.52 1.52 0 0 1-.635-.721q-.209-.472-.209-1.155 0-.573.209-1.03.217-.457.604-.729.396-.27.923-.271.512 0 .852.232.349.232.527.651a2.45 2.45 0 0 1 .171 1.116q0 .07-.008.132h-2.891q.024.845.403 1.263.388.42 1.178.419.31 0 .566-.07.263-.07.403-.147l.077.317a2 2 0 0 1-.441.163q-.295.07-.62.07m-1.558-2.325h2.519a2.2 2.2 0 0 0-.148-.814 1.07 1.07 0 0 0-.403-.503 1.1 1.1 0 0 0-.627-.17q-.419 0-.713.216-.287.21-.45.55a2 2 0 0 0-.178.721m4.06 2.263v-3.836q.218-.078.558-.155a4 4 0 0 1 .829-.078q.418 0 .69.124a.96.96 0 0 1 .434.341q.132-.116.325-.217a2 2 0 0 1 .992-.247q.528 0 .829.185.31.186.442.558.132.371.132.938v2.387h-.372v-2.24q0-.51-.085-.837-.085-.333-.318-.488-.232-.162-.667-.163-.263 0-.472.062-.21.055-.372.148-.163.093-.287.201.078.186.109.419.03.232.031.503v2.395h-.365v-2.24q0-.519-.093-.844a.79.79 0 0 0-.317-.48q-.233-.165-.682-.164-.21 0-.411.024a3 3 0 0 0-.349.062 1 1 0 0 0-.209.062v3.58zm6.771.07a.33.33 0 0 1-.248-.093.37.37 0 0 1-.086-.248q0-.148.086-.24a.32.32 0 0 1 .248-.101q.147 0 .24.1a.33.33 0 0 1 .093.24.34.34 0 0 1-.093.24.31.31 0 0 1-.24.102"/></svg>