<svg width="50" height="50" viewBox="0 0 50 50" fill="none" xmlns="http://www.w3.org/2000/svg">
<path fill-rule="evenodd" clip-rule="evenodd" d="M5.415 12.4976C12.6528 12.4076 19.612 9.69376 25 4.86011C30.3876 9.69466 37.3468 12.4094 44.585 12.5001C44.86 14.1251 45 15.8001 45 17.5026C45 30.5651 36.65 41.6776 25 45.7951C13.35 41.6751 5 30.5626 5 17.5001C5 15.7951 5.1425 14.1251 5.415 12.4976ZM34.2675 21.7676C34.7229 21.2961 34.9749 20.6646 34.9692 20.0091C34.9635 19.3536 34.7006 18.7266 34.237 18.2631C33.7735 17.7995 33.1465 17.5366 32.491 17.5309C31.8355 17.5252 31.204 17.7772 30.7325 18.2326L22.5 26.4651L19.2675 23.2326C18.796 22.7772 18.1645 22.5252 17.509 22.5309C16.8535 22.5366 16.2265 22.7995 15.763 23.2631C15.2994 23.7266 15.0365 24.3536 15.0308 25.0091C15.0251 25.6646 15.2771 26.2961 15.7325 26.7676L20.7325 31.7676C21.2013 32.2363 21.8371 32.4996 22.5 32.4996C23.1629 32.4996 23.7987 32.2363 24.2675 31.7676L34.2675 21.7676Z" fill="white"/>
</svg>
